<svg width="295" height="44" viewBox="0 0 295 44" fill="none" xmlns="http://www.w3.org/2000/svg">
<path d="M41.8181 36.1473L2.33861 15.9879C-1.66215 13.9451 -0.302154 9.69164 4.6867 8.69141L46.6463 0.261107C47.5351 0.0236884 48.4876 -0.0533806 49.4248 0.0362978C50.3619 0.125976 51.2566 0.379814 52.0347 0.776746C52.8127 1.17368 53.4517 1.70225 53.8985 2.3186C54.3453 2.93495 54.5871 3.6213 54.6038 4.32069L52.1171 32.9088C51.8222 36.3021 45.8188 38.1902 41.8181 36.1473Z" fill="#E9327C"/>
<path d="M29.2965 41.1237L6.03799 7.45303C5.50633 6.68274 5.27237 5.81872 5.36192 4.95625C5.45147 4.09379 5.86104 3.26638 6.54547 2.56528C7.22991 1.86419 8.16261 1.31663 9.24072 0.983008C10.3188 0.649383 11.5005 0.542649 12.6553 0.674573L55.7592 5.59917C56.7516 5.71256 57.6935 5.99871 58.5074 6.43407C59.3212 6.86944 59.9839 7.44159 60.4409 8.10349C60.8978 8.76539 61.136 9.49813 61.1359 10.2415C61.1357 10.9848 60.8972 11.7175 60.44 12.3793L40.5836 41.1254C40.0504 41.8934 39.2415 42.5378 38.2457 42.9877C37.25 43.4376 36.106 43.6755 34.9394 43.6753C33.7729 43.6751 32.629 43.4369 31.6334 42.9867C30.6379 42.5366 29.8293 41.892 29.2965 41.1237Z" fill="#1DACE3"/>
<path d="M54.4982 5.45454L33.0111 2.99957L6.62988 8.30211L17.1599 23.5516L41.8181 36.1474C42.3621 36.4221 42.9605 36.6326 43.5918 36.7713L52.9577 23.2128L54.4982 5.45454Z" fill="#3A68B8"/>
<path d="M163.335 9.39012C163.335 8.79889 163.572 8.22094 164.016 7.72935C164.459 7.23777 165.09 6.85462 165.828 6.62836C166.566 6.40211 167.378 6.34292 168.161 6.45826C168.944 6.5736 169.664 6.85831 170.229 7.27637C170.793 7.69443 171.178 8.22707 171.334 8.80693C171.49 9.3868 171.41 9.98785 171.104 10.5341C170.798 11.0803 170.281 11.5472 169.617 11.8756C168.953 12.2041 168.172 12.3794 167.373 12.3794C166.306 12.3714 165.285 12.0538 164.53 11.495C163.775 10.9361 163.346 10.1804 163.335 9.39012ZM164.008 13.8407H170.74V30.4471H164.008V13.8407Z" fill="white"/>
<path d="M199.81 22.1441C199.889 23.2417 199.673 24.34 199.176 25.3757C198.678 26.4114 197.91 27.3642 196.913 28.1791C195.917 28.9941 194.713 29.6552 193.37 30.1244C192.027 30.5936 190.572 30.8617 189.089 30.9132C187.841 30.9635 186.594 30.8077 185.438 30.4572C184.282 30.1067 183.245 29.5703 182.403 28.8867V37.0906H175.674V13.8408H182.403V15.4014C183.245 14.7182 184.282 14.182 185.438 13.8318C186.594 13.4816 187.841 13.3261 189.089 13.3765C190.572 13.4278 192.027 13.6957 193.37 14.1648C194.712 14.6338 195.917 15.2948 196.913 16.1096C197.909 16.9244 198.678 17.877 199.176 18.9127C199.673 19.9483 199.889 21.0465 199.81 22.1441ZM193.081 22.1441C193.054 21.3666 192.719 20.6121 192.116 19.9751C191.513 19.3381 190.67 18.8468 189.692 18.5628C188.714 18.2788 187.644 18.2146 186.617 18.3783C185.59 18.5421 184.651 18.9264 183.918 19.4833C183.184 20.0401 182.689 20.7447 182.494 21.5089C182.298 22.2731 182.412 23.063 182.82 23.7796C183.229 24.4963 183.913 25.1079 184.789 25.5379C185.664 25.9679 186.691 26.1972 187.742 26.1971C188.464 26.2212 189.184 26.132 189.855 25.9355C190.527 25.7389 191.135 25.4394 191.639 25.0566C192.143 24.6739 192.532 24.2165 192.781 23.7145C193.029 23.2126 193.132 22.6774 193.081 22.1441Z" fill="white"/>
<path d="M220.583 25.4625C220.583 29.2826 216.096 30.91 211.25 30.91C209.292 31.0411 207.327 30.7344 205.607 30.0296C203.887 29.3247 202.493 28.2541 201.604 26.9563L207.436 24.4997C207.673 25.0996 208.181 25.6211 208.876 25.9769C209.57 26.3327 210.408 26.5013 211.25 26.4546C212.865 26.4546 213.671 26.088 213.671 25.425C213.671 23.5972 202.634 24.5616 202.634 18.8143C202.634 15.1946 206.761 13.3684 211.437 13.3684C213.191 13.3277 214.928 13.6358 216.466 14.2607C218.005 14.8856 219.289 15.8044 220.184 16.9214L214.443 19.2135C214.192 18.7775 213.773 18.406 213.238 18.1453C212.704 17.8845 212.077 17.7461 211.437 17.7473C210.271 17.7473 209.553 18.0731 209.553 18.6775C209.547 20.5835 220.583 19.321 220.583 25.4625Z" fill="white"/>
<path d="M245.179 13.8405V30.447H238.449V28.8831C237.672 29.572 236.685 30.1148 235.57 30.4671C234.454 30.8193 233.242 30.971 232.032 30.9096C227.501 30.9096 223.644 28.5182 223.644 24.0334V13.8405H230.373V23.3069C230.316 23.7027 230.377 24.1029 230.551 24.4796C230.724 24.8563 231.007 25.2004 231.378 25.4881C231.75 25.7757 232.202 26 232.702 26.1452C233.203 26.2903 233.74 26.353 234.277 26.3288C236.744 26.3288 238.458 25.2666 238.458 22.9078V13.8405H245.179Z" fill="white"/>
<path d="M283.752 20.2489V30.4467H277.022V20.6823C277.022 19.0223 275.944 17.9585 273.792 17.9585C271.547 17.9585 270.293 19.1216 270.293 21.0814V30.4467H263.561V20.6823C263.561 19.0223 262.485 17.9585 260.331 17.9585C258.088 17.9585 256.832 19.1216 256.832 21.0814V30.4467H250.102V13.8403H256.843V15.3618C257.54 14.6843 258.456 14.147 259.506 13.7989C260.556 13.4509 261.708 13.3032 262.855 13.3695C264.007 13.3278 265.154 13.5077 266.184 13.8917C267.214 14.2756 268.092 14.8506 268.733 15.5605C269.479 14.8178 270.467 14.2271 271.605 13.844C272.743 13.4608 273.994 13.2975 275.24 13.3695C280.389 13.376 283.752 16.0981 283.752 20.2489Z" fill="white"/>
<path d="M289.454 13.7378C292.213 13.7378 294.449 12.0822 294.449 10.0399C294.449 7.9976 292.213 6.34198 289.454 6.34198C286.695 6.34198 284.458 7.9976 284.458 10.0399C284.458 12.0822 286.695 13.7378 289.454 13.7378Z" fill="white"/>
<path d="M71.4541 6.20197H78.1859V30.447H71.4541V6.20197ZM81.9974 22.1438C81.99 20.4028 82.6806 18.6993 83.9819 17.249C85.2831 15.7987 87.1365 14.6669 89.3072 13.9969C91.478 13.3268 93.8685 13.1486 96.1761 13.4849C98.4838 13.8212 100.605 14.6569 102.27 15.886C103.936 17.1152 105.072 18.6825 105.533 20.3897C105.995 22.0969 105.762 23.8671 104.863 25.4761C103.965 27.0851 102.442 28.4606 100.487 29.4285C98.5318 30.3963 96.2327 30.9129 93.8808 30.9129C92.3188 30.9253 90.7691 30.7071 89.3222 30.2712C87.8753 29.8352 86.5603 29.1902 85.454 28.3738C84.3477 27.5574 83.4722 26.586 82.8787 25.5163C82.2852 24.4466 81.9856 23.3001 81.9974 22.1438ZM99.0479 22.1438C99.0215 21.3928 98.6966 20.6642 98.1137 20.0492C97.5309 19.4342 96.716 18.9601 95.771 18.6861C94.826 18.4122 93.7929 18.3505 92.8009 18.509C91.8088 18.6674 90.9019 19.0389 90.1936 19.5768C89.4853 20.1148 89.0069 20.7955 88.8184 21.5337C88.63 22.2719 88.7397 23.0348 89.1339 23.7271C89.5281 24.4194 90.1894 25.0102 91.0348 25.4257C91.8803 25.8413 92.8726 26.063 93.8874 26.0633C94.5824 26.0779 95.2739 25.9859 95.9183 25.7928C96.5628 25.5998 97.1463 25.3101 97.632 24.9418C98.1176 24.5736 98.495 24.1348 98.7402 23.6533C98.9854 23.1717 99.0932 22.6577 99.0567 22.1438H99.0479ZM132.605 13.8357V29.613C132.605 35.1924 126.728 37.5497 120.762 37.5497C118.662 37.667 116.558 37.3541 114.683 36.6452C112.807 35.9363 111.231 34.8588 110.128 33.5308L115.87 31.0726C116.333 31.7657 117.071 32.3375 117.986 32.7116C118.9 33.0857 119.947 33.2442 120.986 33.1659C121.649 33.233 122.325 33.1889 122.962 33.037C123.599 32.8851 124.182 32.6291 124.668 32.2881C125.154 31.9471 125.53 31.5297 125.769 31.0667C126.008 30.6037 126.103 30.1069 126.048 29.613V28.0849C125.259 28.7985 124.256 29.3655 123.118 29.7403C121.981 30.1152 120.74 30.2875 119.496 30.2434C116.535 30.1753 113.726 29.2566 111.664 27.682C109.602 26.1074 108.449 24.0005 108.449 21.8074C108.449 19.6143 109.602 17.5074 111.664 15.9328C113.726 14.3582 116.535 13.4395 119.496 13.3714C120.74 13.3273 121.981 13.4996 123.118 13.8745C124.256 14.2493 125.259 14.8163 126.048 15.5299V13.8357H132.605ZM126.056 21.8066C126.101 21.0045 125.82 20.2109 125.25 19.5279C124.68 18.8449 123.848 18.3036 122.859 17.9738C121.87 17.6439 120.771 17.5404 119.702 17.6767C118.634 17.813 117.645 18.1829 116.862 18.7386C116.08 19.2944 115.54 20.0108 115.311 20.7956C115.083 21.5804 115.177 22.3977 115.582 23.1426C115.986 23.8874 116.682 24.5257 117.581 24.9753C118.479 25.425 119.539 25.6654 120.623 25.6658C121.33 25.7026 122.04 25.6294 122.706 25.451C123.373 25.2726 123.982 24.9929 124.493 24.6298C125.005 24.2668 125.409 23.8285 125.678 23.3431C125.947 22.8577 126.076 22.336 126.056 21.8115V21.8066ZM136.417 22.1324C136.41 20.3914 137.1 18.6879 138.401 17.2376C139.703 15.7873 141.556 14.6555 143.727 13.9855C145.898 13.3154 148.288 13.1372 150.596 13.4735C152.903 13.8098 155.024 14.6454 156.69 15.8746C158.356 17.1037 159.491 18.6711 159.953 20.3783C160.414 22.0855 160.181 23.8557 159.283 25.4647C158.385 27.0737 156.861 28.4492 154.906 29.4171C152.951 30.3849 150.652 30.9015 148.3 30.9015C146.74 30.9139 145.191 30.6961 143.745 30.2608C142.3 29.8256 140.985 29.1816 139.879 28.3664C138.773 27.5512 137.897 26.5812 137.303 25.5128C136.708 24.4445 136.407 23.2992 136.417 22.1438V22.1324ZM153.468 22.1324C153.442 21.3809 153.117 20.6518 152.534 20.0363C151.951 19.4207 151.136 18.9461 150.19 18.6719C149.245 18.3976 148.211 18.3358 147.218 18.4943C146.226 18.6527 145.318 19.0243 144.609 19.5627C143.901 20.101 143.422 20.7821 143.234 21.5208C143.045 22.2594 143.155 23.0228 143.55 23.7155C143.944 24.4081 144.606 24.9992 145.452 25.4148C146.299 25.8303 147.292 26.052 148.307 26.0519C149 26.0655 149.689 25.9731 150.331 25.7803C150.974 25.5876 151.555 25.2987 152.04 24.9318C152.524 24.5649 152.901 24.1279 153.147 23.6481C153.393 23.1684 153.502 22.6562 153.468 22.1438V22.1324Z" fill="white"/>
</svg>
