<svg width="295" height="421" viewBox="0 0 295 421" fill="none" xmlns="http://www.w3.org/2000/svg">
<path d="M39.9568 65.3934L33.9976 53.4051L42.743 35.8597L48.3005 47.0406L81.107 47.0201L71.798 65.5589L39.9568 65.3934Z" fill="#FFAD64"/>
<path d="M86.9649 35.1165L81.0057 47.1047L63.5507 47.0809L69.1087 35.9003L52.6902 2.9118L71.1678 3.00596L86.9649 35.1165Z" fill="#ADD4D3"/>
<path d="M40.8747 2.84711H52.7931L61.5028 20.4166L50.3871 20.4161L33.9992 53.4252L24.8306 34.7922L40.8747 2.84711Z" fill="#FB8351"/>
<path fill-rule="evenodd" clip-rule="evenodd" d="M54.2463 0.0716121L54.2108 0H39.4668L22 34.778L33.99 59.1446L34.0047 59.1151L38.5374 68.2336L73.2023 68.4138L85.3759 44.17H85.2949L89.792 35.1233L72.5939 0.165107L54.2463 0.0716121ZM65.6518 23.2644H65.7437L57.0767 5.78108L69.7413 5.84557L84.1375 35.1085L79.6314 44.1737L67.8226 44.181L71.9399 35.8988L65.6518 23.2644ZM51.2438 5.69488L57.1536 17.5692L48.9712 17.5689L34.9627 45.785L34.0072 47.7021L27.6619 34.807L42.2831 5.69488H51.2438ZM45.5619 35.8363L51.8037 23.2639L59.9881 23.2642L66.2772 35.9004L62.159 44.1846L49.7154 44.1924L45.5619 35.8363ZM36.8338 53.4166L39.2085 48.6336L42.7398 41.549L46.8853 49.8891L59.327 49.8813L59.3069 49.9218L76.7996 49.9458L70.3932 62.7042L41.3756 62.5533L36.8338 53.4166Z" fill="#333237"/>
<path d="M104.071 58.5071V45.1763H99.8291V43.6797H109.939V45.1763H105.697V58.5071H104.071Z" fill="white"/>
<path d="M114.456 58.7379C112.777 58.7379 111.522 58.2698 110.689 57.3335C109.857 56.3972 109.44 54.9544 109.44 53.0049C109.44 51.2552 109.797 49.8815 110.511 48.8837C111.238 47.8707 112.381 47.3641 113.94 47.3641C114.865 47.3641 115.625 47.5637 116.22 47.9628C116.828 48.3464 117.277 48.8837 117.568 49.5745C117.872 50.2498 118.024 51.0173 118.024 51.8768V53.9259H111.066C111.119 54.7548 111.271 55.4071 111.522 55.883C111.786 56.3588 112.176 56.7041 112.691 56.9191C113.22 57.1185 113.914 57.2183 114.773 57.2183C115.737 57.2183 116.623 57.0265 117.429 56.6428V58.1163C117.019 58.3159 116.557 58.4694 116.041 58.5768C115.539 58.6842 115.011 58.7379 114.456 58.7379ZM111.066 52.5676H116.577V51.6696C116.577 50.7793 116.372 50.0963 115.962 49.6205C115.566 49.1294 114.905 48.8837 113.98 48.8837C112.857 48.8837 112.09 49.1907 111.68 49.8047C111.271 50.4186 111.066 51.3396 111.066 52.5676Z" fill="white"/>
<path d="M124.847 58.7379C123.208 58.7379 121.992 58.2467 121.199 57.2644C120.406 56.2668 120.01 54.8622 120.01 53.051C120.01 51.1324 120.459 49.7049 121.358 48.7687C122.256 47.8324 123.466 47.3641 124.985 47.3641C125.607 47.3641 126.122 47.4178 126.532 47.5254C126.941 47.6174 127.338 47.7709 127.721 47.9857V49.4823C127.007 49.0833 126.195 48.8837 125.283 48.8837C124.12 48.8837 123.221 49.2061 122.587 49.8508C121.952 50.4801 121.635 51.5468 121.635 53.051C121.635 54.4939 121.913 55.553 122.468 56.2283C123.023 56.8884 123.941 57.2183 125.223 57.2183C126.135 57.2183 126.974 57.0189 127.741 56.6197V58.1393C127.331 58.3389 126.888 58.4846 126.413 58.5768C125.95 58.6842 125.428 58.7379 124.847 58.7379Z" fill="white"/>
<path d="M129.563 58.5071V42.989H131.188V48.768C131.625 48.3536 132.133 48.0159 132.715 47.755C133.31 47.4939 133.997 47.3635 134.776 47.3635C135.913 47.3635 136.765 47.6859 137.334 48.3306C137.902 48.9753 138.186 49.9883 138.186 51.3696V58.5071H136.561V51.4388C136.561 50.4871 136.376 49.8272 136.006 49.4586C135.649 49.0751 135.054 48.8831 134.221 48.8831C133.693 48.8831 133.144 49.0212 132.576 49.2975C132.021 49.5584 131.559 49.9039 131.188 50.3336V58.5071H129.563Z" fill="white"/>
<path d="M144.669 58.7378C143.347 58.7378 142.29 58.4001 141.497 57.7246C140.704 57.0493 140.308 56.1437 140.308 55.0078C140.308 53.9641 140.585 53.0661 141.14 52.314C141.695 51.5619 142.455 50.8942 143.42 50.311C142.904 49.7124 142.468 49.1521 142.112 48.6303C141.755 48.1084 141.576 47.479 141.576 46.7423C141.576 45.8213 141.847 45.0462 142.389 44.4169C142.944 43.7722 143.724 43.45 144.728 43.45C145.706 43.45 146.466 43.7492 147.008 44.3478C147.549 44.9464 147.821 45.7445 147.821 46.7423C147.821 47.5712 147.629 48.2696 147.245 48.8375C146.862 49.4054 146.314 49.981 145.6 50.5643L148.891 54.4553C149.115 53.8874 149.228 53.1659 149.228 52.291V51.9687H150.517V52.291C150.517 52.8898 150.457 53.4729 150.338 54.0409C150.22 54.6088 150.047 55.1 149.823 55.5144L151.607 57.6096L150.615 58.6456L149.029 56.8268C148.567 57.4867 147.966 57.9703 147.226 58.2773C146.486 58.5843 145.633 58.7378 144.669 58.7378ZM144.589 49.6433C145.211 49.1982 145.68 48.7762 145.997 48.377C146.314 47.9626 146.473 47.4407 146.473 46.8114C146.473 46.2281 146.334 45.7676 146.056 45.4299C145.792 45.077 145.349 44.9004 144.728 44.9004C144.094 44.9004 143.631 45.0846 143.341 45.453C143.063 45.8213 142.924 46.2742 142.924 46.8114C142.924 47.3026 143.07 47.7553 143.36 48.1698C143.664 48.5842 144.074 49.0754 144.589 49.6433ZM144.669 57.3793C145.435 57.3793 146.089 57.2489 146.631 56.9879C147.186 56.7116 147.655 56.305 148.039 55.7677L144.411 51.4621C143.552 51.9227 142.911 52.4215 142.488 52.9587C142.079 53.4806 141.874 54.1483 141.874 54.9619C141.874 55.7599 142.138 56.3663 142.667 56.7807C143.195 57.1797 143.863 57.3793 144.669 57.3793Z" fill="#FB8351"/>
<path d="M100.469 32.9171V12.387H105.63V28.3265H113.589V32.9171H100.469Z" fill="#FB8351"/>
<path d="M121.89 33.2362C119.292 33.2362 117.371 32.5666 116.126 31.2277C114.901 29.8888 114.288 27.9335 114.288 25.3619C114.288 22.8117 114.91 20.867 116.154 19.5281C117.398 18.168 119.31 17.4878 121.89 17.4878C124.489 17.4878 126.41 18.168 127.654 19.5281C128.917 20.867 129.548 22.8117 129.548 25.3619C129.548 27.9335 128.926 29.8888 127.682 31.2277C126.438 32.5666 124.507 33.2362 121.89 33.2362ZM121.89 28.8686C122.732 28.8686 123.336 28.5924 123.702 28.0397C124.086 27.4872 124.278 26.5946 124.278 25.3619C124.278 24.1506 124.086 23.2685 123.702 22.716C123.336 22.1421 122.732 21.8552 121.89 21.8552C121.067 21.8552 120.472 22.1421 120.106 22.716C119.74 23.2685 119.557 24.1506 119.557 25.3619C119.557 26.5946 119.74 27.4872 120.106 28.0397C120.472 28.5924 121.067 28.8686 121.89 28.8686Z" fill="#FB8351"/>
<path d="M137.191 38.528C136.55 38.528 135.855 38.4962 135.105 38.4324C134.354 38.39 133.641 38.3049 132.964 38.1774C132.305 38.05 131.756 37.9011 131.317 37.731V33.9055C131.811 34.0968 132.378 34.2563 133.019 34.3838C133.677 34.5113 134.345 34.6069 135.022 34.6707C135.699 34.7344 136.321 34.7664 136.889 34.7664C137.858 34.7664 138.618 34.7026 139.167 34.5751C139.734 34.4688 140.018 34.2669 140.018 33.9694C140.018 33.7144 139.926 33.5443 139.743 33.4593C139.56 33.3955 139.213 33.3636 138.7 33.3636H135.269C133.934 33.3636 132.9 33.1193 132.168 32.6304C131.454 32.1204 131.097 31.3659 131.097 30.367C131.097 28.9642 131.765 27.9867 133.101 27.4342C132.351 26.9878 131.802 26.4246 131.454 25.7445C131.106 25.0645 130.933 24.2037 130.933 23.1623C130.933 21.207 131.5 19.7724 132.634 18.8586C133.787 17.9448 135.443 17.4878 137.602 17.4878C138.06 17.4878 138.572 17.5302 139.139 17.6153C139.707 17.6791 140.118 17.7429 140.374 17.8066H145.48L145.37 21.4408H143.641C143.97 21.9296 144.135 22.5247 144.135 23.2261C144.135 24.7776 143.741 26.0102 142.954 26.9241C142.186 27.8166 140.969 28.263 139.304 28.263C139.066 28.263 138.81 28.2524 138.535 28.231C138.261 28.1886 138.005 28.1568 137.767 28.1354C137.364 28.178 137.017 28.263 136.724 28.3905C136.431 28.518 136.285 28.7305 136.285 29.0281C136.285 29.2406 136.367 29.3895 136.532 29.4743C136.697 29.5381 136.925 29.57 137.218 29.57H140.21C141.546 29.57 142.598 29.9314 143.366 30.6539C144.135 31.3765 144.519 32.4391 144.519 33.8419C144.519 35.3295 143.924 36.4771 142.735 37.2848C141.546 38.1136 139.698 38.528 137.191 38.528ZM137.63 24.9795C138.435 24.9795 138.993 24.82 139.304 24.5012C139.615 24.1824 139.771 23.6511 139.771 22.9073C139.771 22.1633 139.615 21.6214 139.304 21.2814C138.993 20.9415 138.435 20.7714 137.63 20.7714C136.88 20.7714 136.331 20.9415 135.983 21.2814C135.654 21.6002 135.489 22.1421 135.489 22.9073C135.489 23.6299 135.644 24.1612 135.955 24.5012C136.285 24.82 136.843 24.9795 137.63 24.9795Z" fill="#FB8351"/>
<path d="M153.895 33.2362C151.296 33.2362 149.375 32.5666 148.131 31.2277C146.905 29.8888 146.292 27.9335 146.292 25.3619C146.292 22.8117 146.914 20.867 148.158 19.5281C149.402 18.168 151.315 17.4878 153.895 17.4878C156.493 17.4878 158.414 18.168 159.658 19.5281C160.922 20.867 161.552 22.8117 161.552 25.3619C161.552 27.9335 160.93 29.8888 159.686 31.2277C158.441 32.5666 156.511 33.2362 153.895 33.2362ZM153.895 28.8686C154.736 28.8686 155.34 28.5924 155.706 28.0397C156.09 27.4872 156.283 26.5946 156.283 25.3619C156.283 24.1506 156.09 23.2685 155.706 22.716C155.34 22.1421 154.736 21.8552 153.895 21.8552C153.072 21.8552 152.476 22.1421 152.11 22.716C151.744 23.2685 151.562 24.1506 151.562 25.3619C151.562 26.5946 151.744 27.4872 152.11 28.0397C152.476 28.5924 153.072 28.8686 153.895 28.8686Z" fill="#FB8351"/>
<path d="M163.82 15.7975V11.462H169.392V15.7975H163.82ZM164.231 32.9167V22.1734H162.339L162.777 17.806H169.392V32.9167H164.231Z" fill="white"/>
<path d="M171.867 39.8032V17.8066H176.342L176.589 19.0179C177.118 18.5292 177.695 18.1572 178.317 17.9022C178.958 17.6259 179.699 17.4878 180.541 17.4878C182.48 17.4878 183.972 18.0615 185.015 19.2092C186.075 20.3356 186.606 22.259 186.606 24.9793C186.606 27.6785 186.048 29.7293 184.932 31.132C183.816 32.5348 182.279 33.236 180.321 33.236C179.022 33.236 177.924 32.9492 177.027 32.3753V39.8032H171.867ZM179.003 28.8686C179.754 28.8686 180.331 28.5604 180.733 27.9441C181.136 27.3278 181.337 26.3714 181.337 25.0749C181.337 23.8211 181.144 22.971 180.76 22.5247C180.394 22.0783 179.827 21.8552 179.058 21.8552C178.29 21.8552 177.613 22.1527 177.027 22.7479V28.1036C177.321 28.3585 177.613 28.5498 177.906 28.6773C178.198 28.8048 178.564 28.8686 179.003 28.8686Z" fill="white"/>
<path d="M193.483 33.236C192.367 33.236 191.315 33.1405 190.327 32.9492C189.356 32.7791 188.589 32.556 188.021 32.2797V27.9759C188.661 28.3161 189.421 28.5817 190.298 28.773C191.196 28.9643 191.956 29.0599 192.576 29.0599C193.236 29.0599 193.73 29.0387 194.059 28.9961C194.408 28.9536 194.58 28.7729 194.58 28.4542C194.58 28.093 194.279 27.8166 193.675 27.6253C193.072 27.434 192.312 27.1577 191.397 26.7965C190.207 26.3076 189.319 25.7339 188.734 25.0749C188.149 24.4162 187.856 23.4598 187.856 22.2058C187.856 20.6969 188.369 19.5387 189.394 18.7311C190.418 17.9022 192.028 17.4878 194.223 17.4878C195.065 17.4878 195.935 17.5621 196.831 17.7109C197.727 17.8596 198.432 18.0297 198.945 18.221V22.4291C198.395 22.1527 197.792 21.9508 197.134 21.8234C196.493 21.6957 195.908 21.6321 195.377 21.6321C194.791 21.6321 194.269 21.6639 193.812 21.7277C193.354 21.7914 193.126 21.972 193.126 22.2696C193.126 22.6096 193.383 22.8541 193.895 23.0028C194.425 23.1517 195.13 23.3854 196.007 23.7042C196.997 24.0442 197.764 24.4162 198.314 24.82C198.881 25.2238 199.274 25.7125 199.494 26.2864C199.731 26.8603 199.851 27.5721 199.851 28.4223C199.851 29.9526 199.31 31.1426 198.231 31.9927C197.169 32.8216 195.586 33.236 193.483 33.236Z" fill="white"/>
<path d="M206.501 33.2355C204.982 33.2355 203.793 32.7362 202.933 31.7372C202.074 30.7383 201.644 29.2719 201.644 27.3378V17.806H206.804V26.8598C206.804 28.1773 207.38 28.8362 208.532 28.8362C208.953 28.8362 209.365 28.73 209.768 28.5175C210.17 28.3049 210.49 28.0392 210.728 27.7204V17.806H215.888V32.9167H211.058L210.921 31.769C210.409 32.1941 209.777 32.5449 209.027 32.821C208.295 33.0974 207.453 33.2355 206.501 33.2355Z" fill="white"/>
<path d="M218.346 32.9172V17.8066H223.121L223.258 19.0179C223.826 18.5716 224.457 18.2104 225.152 17.934C225.866 17.6365 226.644 17.4878 227.486 17.4878C228.326 17.4878 228.986 17.6259 229.461 17.9022C229.938 18.1784 230.322 18.5822 230.614 19.1135C231.2 18.6248 231.859 18.2316 232.591 17.934C233.34 17.6365 234.22 17.4878 235.226 17.4878C236.744 17.4878 237.861 17.9553 238.574 18.8904C239.288 19.8043 239.645 21.207 239.645 23.0985V32.9172H234.566V23.7998C234.566 23.1197 234.448 22.6416 234.21 22.3653C233.973 22.0677 233.579 21.919 233.029 21.919C232.316 21.919 231.73 22.2166 231.274 22.8115C231.309 23.0878 231.328 23.3536 231.328 23.6085C231.328 23.8423 231.328 24.108 231.328 24.4056V32.9172H226.552V23.7042C226.552 23.0879 226.461 22.6416 226.278 22.3653C226.094 22.0677 225.747 21.919 225.235 21.919C224.887 21.919 224.549 22.0253 224.219 22.2378C223.889 22.4503 223.597 22.7053 223.341 23.0028V32.9172H218.346Z" fill="white"/>
<path d="M160.011 58.9282C158.636 58.9282 157.493 58.6288 156.581 58.0302C155.683 57.4162 155.01 56.5643 154.56 55.4745C154.111 54.3695 153.886 53.0801 153.886 51.6066C153.886 49.995 154.098 48.5904 154.52 47.3932C154.943 46.196 155.603 45.275 156.503 44.6303C157.402 43.9704 158.564 43.6403 159.991 43.6403C160.732 43.6403 161.398 43.7017 161.993 43.8245C162.601 43.9473 163.169 44.1161 163.699 44.3311V45.9888C163.169 45.7585 162.608 45.582 162.013 45.4592C161.418 45.3211 160.792 45.2519 160.131 45.2519C158.98 45.2519 158.068 45.5052 157.395 46.0118C156.721 46.5183 156.239 47.2473 155.947 48.199C155.656 49.1507 155.511 50.2866 155.511 51.6066C155.511 53.433 155.882 54.8452 156.621 55.843C157.375 56.8254 158.558 57.3166 160.169 57.3166C160.764 57.3166 161.365 57.2627 161.973 57.1553C162.594 57.0478 163.169 56.8791 163.699 56.6488V58.3296C163.182 58.5137 162.621 58.6595 162.013 58.767C161.418 58.8745 160.752 58.9282 160.011 58.9282Z" fill="white"/>
<path d="M170.373 58.9275C168.734 58.9275 167.538 58.4439 166.785 57.477C166.045 56.4946 165.676 55.0824 165.676 53.2406C165.676 51.4139 166.053 50.0095 166.805 49.0272C167.558 48.0448 168.749 47.5536 170.373 47.5536C171.999 47.5536 173.189 48.0448 173.941 49.0272C174.695 50.0095 175.071 51.4139 175.071 53.2406C175.071 55.0824 174.702 56.4946 173.961 57.477C173.222 58.4439 172.026 58.9275 170.373 58.9275ZM170.373 57.3159C171.496 57.3159 172.29 56.9935 172.752 56.3488C173.215 55.6888 173.446 54.6528 173.446 53.2406C173.446 51.8284 173.209 50.8001 172.732 50.1554C172.27 49.4953 171.483 49.1653 170.373 49.1653C169.264 49.1653 168.47 49.4953 167.995 50.1554C167.533 50.8001 167.301 51.8284 167.301 53.2406C167.301 54.6528 167.533 55.6888 167.995 56.3488C168.457 56.9935 169.25 57.3159 170.373 57.3159Z" fill="white"/>
<path d="M177.058 58.6978V57.1092H178.525V58.6978H177.058Z" fill="white"/>
<path d="M41.8181 408.715L2.33861 377.085C-1.66215 373.88 -0.302154 367.206 4.6867 365.637L46.6463 352.41C47.5351 352.037 48.4876 351.916 49.4248 352.057C50.3619 352.198 51.2566 352.596 52.0347 353.219C52.8127 353.841 53.4517 354.671 53.8985 355.638C54.3453 356.605 54.5871 357.682 54.6038 358.779L52.1171 403.634C51.8222 408.958 45.8188 411.92 41.8181 408.715Z" fill="#E9327C"/>
<path d="M29.2963 416.523L6.03775 363.694C5.50609 362.485 5.27213 361.13 5.36168 359.776C5.45122 358.423 5.8608 357.125 6.54523 356.025C7.22966 354.925 8.16236 354.066 9.24047 353.542C10.3186 353.019 11.5002 352.851 12.6551 353.058L55.759 360.785C56.7514 360.963 57.6932 361.412 58.5071 362.095C59.321 362.778 59.9837 363.676 60.4406 364.714C60.8976 365.753 61.1358 366.903 61.1356 368.069C61.1355 369.235 60.897 370.385 60.4397 371.423L40.5834 416.526C40.0502 417.731 39.2413 418.742 38.2455 419.448C37.2497 420.154 36.1057 420.527 34.9392 420.527C33.7726 420.526 32.6287 420.152 31.6332 419.446C30.6377 418.74 29.8291 417.729 29.2963 416.523Z" fill="#1DACE3"/>
<path d="M54.4982 360.558L33.0111 356.706L6.62988 365.026L17.1599 388.952L41.8181 408.715C42.3621 409.146 42.9605 409.477 43.5918 409.694L52.9577 388.421L54.4982 360.558Z" fill="#3A68B8"/>
<path d="M163.335 366.733C163.335 365.805 163.572 364.899 164.016 364.127C164.459 363.356 165.09 362.755 165.828 362.4C166.566 362.045 167.378 361.952 168.161 362.133C168.945 362.314 169.664 362.761 170.229 363.417C170.794 364.073 171.178 364.908 171.334 365.818C171.49 366.728 171.41 367.671 171.104 368.528C170.799 369.385 170.281 370.118 169.617 370.633C168.953 371.148 168.172 371.423 167.373 371.423C166.306 371.411 165.285 370.912 164.53 370.036C163.775 369.159 163.346 367.973 163.335 366.733ZM164.009 373.716H170.74V399.772H164.009V373.716Z" fill="white"/>
<path d="M199.811 386.744C199.889 388.466 199.673 390.189 199.176 391.814C198.679 393.44 197.91 394.934 196.913 396.213C195.917 397.492 194.713 398.529 193.37 399.265C192.027 400.001 190.572 400.422 189.089 400.503C187.842 400.582 186.594 400.337 185.438 399.787C184.282 399.237 183.245 398.396 182.404 397.323V410.195H175.674V373.716H182.404V376.165C183.246 375.093 184.282 374.252 185.438 373.702C186.595 373.153 187.842 372.909 189.089 372.988C190.572 373.068 192.027 373.489 193.37 374.224C194.713 374.96 195.917 375.997 196.913 377.276C197.91 378.554 198.679 380.049 199.176 381.674C199.673 383.299 199.889 385.022 199.811 386.744ZM193.081 386.744C193.055 385.524 192.719 384.34 192.116 383.341C191.514 382.341 190.67 381.571 189.692 381.125C188.714 380.679 187.645 380.579 186.618 380.836C185.59 381.092 184.651 381.695 183.918 382.569C183.184 383.443 182.689 384.548 182.494 385.747C182.299 386.947 182.412 388.186 182.821 389.31C183.229 390.435 183.913 391.394 184.789 392.069C185.664 392.744 186.692 393.103 187.742 393.103C188.464 393.141 189.184 393.001 189.856 392.693C190.527 392.384 191.135 391.914 191.639 391.314C192.143 390.713 192.533 389.996 192.781 389.208C193.03 388.42 193.132 387.581 193.081 386.744Z" fill="white"/>
<path d="M220.583 391.951C220.583 397.944 216.096 400.498 211.25 400.498C209.292 400.703 207.327 400.222 205.607 399.116C203.887 398.01 202.493 396.331 201.604 394.294L207.436 390.44C207.673 391.381 208.181 392.199 208.876 392.758C209.57 393.316 210.408 393.581 211.25 393.507C212.865 393.507 213.671 392.932 213.671 391.892C213.671 389.024 202.634 390.537 202.634 381.52C202.634 375.84 206.761 372.975 211.437 372.975C213.191 372.911 214.928 373.395 216.466 374.375C218.005 375.355 219.289 376.797 220.184 378.55L214.443 382.146C214.192 381.462 213.773 380.879 213.238 380.47C212.704 380.061 212.077 379.844 211.437 379.845C210.271 379.845 209.553 380.357 209.553 381.305C209.547 384.295 220.583 382.315 220.583 391.951Z" fill="white"/>
<path d="M245.179 373.716V399.771H238.45V397.318C237.672 398.398 236.685 399.25 235.57 399.803C234.455 400.355 233.242 400.593 232.033 400.497C227.502 400.497 223.644 396.745 223.644 389.708V373.716H230.373V388.568C230.317 389.19 230.377 389.817 230.551 390.408C230.724 390.999 231.007 391.539 231.379 391.991C231.75 392.442 232.202 392.794 232.703 393.022C233.203 393.25 233.741 393.348 234.277 393.31C236.744 393.31 238.458 391.643 238.458 387.942V373.716H245.179Z" fill="white"/>
<path d="M283.752 383.771V399.771H277.022V384.45C277.022 381.846 275.944 380.177 273.792 380.177C271.547 380.177 270.293 382.002 270.293 385.077V399.771H263.561V384.45C263.561 381.846 262.485 380.177 260.33 380.177C258.088 380.177 256.831 382.002 256.831 385.077V399.771H250.102V373.715H256.842V376.103C257.54 375.04 258.456 374.197 259.506 373.651C260.556 373.104 261.707 372.873 262.855 372.977C264.006 372.911 265.153 373.194 266.183 373.796C267.214 374.398 268.092 375.301 268.732 376.414C269.478 375.249 270.466 374.322 271.604 373.721C272.743 373.12 273.993 372.864 275.24 372.977C280.389 372.987 283.752 377.258 283.752 383.771Z" fill="white"/>
<path d="M289.454 373.555C292.213 373.555 294.449 370.957 294.449 367.753C294.449 364.548 292.213 361.951 289.454 361.951C286.695 361.951 284.458 364.548 284.458 367.753C284.458 370.957 286.695 373.555 289.454 373.555Z" fill="white"/>
<path d="M71.4541 361.731H78.1859V399.771H71.4541V361.731ZM81.9974 386.744C81.99 384.012 82.6806 381.339 83.9819 379.064C85.2831 376.788 87.1365 375.012 89.3072 373.961C91.478 372.91 93.8685 372.63 96.1761 373.158C98.4838 373.686 100.605 374.997 102.27 376.925C103.936 378.854 105.072 381.313 105.533 383.991C105.995 386.67 105.762 389.447 104.863 391.972C103.965 394.497 102.442 396.655 100.487 398.173C98.5318 399.692 96.2327 400.502 93.8808 400.502C92.3188 400.522 90.7691 400.18 89.3222 399.495C87.8753 398.811 86.5603 397.799 85.454 396.519C84.3477 395.238 83.4722 393.713 82.8787 392.035C82.2852 390.357 81.9856 388.558 81.9974 386.744ZM99.0479 386.744C99.0215 385.565 98.6966 384.422 98.1137 383.457C97.5309 382.492 96.716 381.748 95.771 381.319C94.826 380.889 93.7929 380.792 92.8009 381.041C91.8088 381.289 90.9019 381.872 90.1936 382.716C89.4853 383.56 89.0069 384.628 88.8184 385.786C88.63 386.945 88.7397 388.142 89.1339 389.228C89.5281 390.314 90.1894 391.241 91.0348 391.893C91.8803 392.545 92.8726 392.893 93.8874 392.893C94.5824 392.916 95.2739 392.772 95.9183 392.469C96.5628 392.166 97.1463 391.711 97.632 391.134C98.1176 390.556 98.495 389.868 98.7402 389.112C98.9854 388.356 99.0932 387.55 99.0567 386.744H99.0479ZM132.605 373.708V398.463C132.605 407.217 126.728 410.915 120.762 410.915C118.662 411.1 116.558 410.609 114.683 409.496C112.807 408.384 111.231 406.693 110.128 404.61L115.87 400.753C116.333 401.84 117.071 402.738 117.986 403.324C118.9 403.911 119.947 404.16 120.986 404.037C121.649 404.143 122.325 404.073 122.962 403.835C123.599 403.597 124.182 403.195 124.668 402.66C125.154 402.125 125.53 401.47 125.769 400.744C126.008 400.017 126.103 399.238 126.048 398.463V396.065C125.259 397.185 124.256 398.074 123.118 398.663C121.981 399.251 120.74 399.521 119.496 399.452C116.535 399.345 113.726 397.904 111.664 395.433C109.602 392.963 108.449 389.657 108.449 386.216C108.449 382.775 109.602 379.469 111.664 376.999C113.726 374.528 116.535 373.087 119.496 372.98C120.74 372.911 121.981 373.181 123.118 373.769C124.256 374.357 125.259 375.247 126.048 376.366V373.708H132.605ZM126.056 386.215C126.101 384.956 125.82 383.711 125.25 382.639C124.68 381.568 123.848 380.718 122.859 380.201C121.87 379.683 120.771 379.521 119.702 379.735C118.634 379.949 117.645 380.529 116.862 381.401C116.08 382.273 115.54 383.397 115.311 384.628C115.083 385.86 115.177 387.142 115.582 388.311C115.986 389.479 116.682 390.481 117.581 391.186C118.479 391.892 119.539 392.269 120.623 392.27C121.33 392.327 122.04 392.213 122.706 391.933C123.373 391.653 123.982 391.214 124.493 390.644C125.005 390.075 125.409 389.387 125.678 388.625C125.947 387.864 126.076 387.045 126.056 386.222V386.215ZM136.417 386.726C136.41 383.994 137.1 381.321 138.401 379.046C139.703 376.77 141.556 374.995 143.727 373.943C145.898 372.892 148.288 372.612 150.596 373.14C152.903 373.668 155.024 374.979 156.69 376.907C158.356 378.836 159.491 381.295 159.953 383.974C160.414 386.652 160.181 389.43 159.283 391.954C158.385 394.479 156.861 396.637 154.906 398.155C152.951 399.674 150.652 400.485 148.3 400.485C146.74 400.504 145.191 400.162 143.745 399.479C142.3 398.796 140.985 397.786 139.879 396.507C138.773 395.228 137.897 393.706 137.303 392.03C136.708 390.353 136.407 388.556 136.417 386.744V386.726ZM153.468 386.726C153.442 385.547 153.117 384.403 152.534 383.437C151.951 382.471 151.136 381.727 150.19 381.296C149.245 380.866 148.211 380.769 147.218 381.018C146.226 381.266 145.318 381.849 144.609 382.694C143.901 383.538 143.422 384.607 143.234 385.766C143.045 386.925 143.155 388.123 143.55 389.21C143.944 390.296 144.606 391.224 145.452 391.876C146.299 392.528 147.292 392.876 148.307 392.875C149 392.897 149.689 392.752 150.331 392.449C150.974 392.147 151.555 391.694 152.04 391.118C152.524 390.542 152.901 389.857 153.147 389.104C153.393 388.351 153.502 387.548 153.468 386.744V386.726Z" fill="white"/>
</svg>
