<svg width="213" height="44" viewBox="0 0 213 44" fill="none" xmlns="http://www.w3.org/2000/svg">
<path fill-rule="evenodd" clip-rule="evenodd" d="M105.236 4.76362C107.288 3.24408 110.617 3.24408 112.67 4.76362C114.722 6.28326 114.722 8.74702 112.67 10.2667L100.154 19.5314C96.5607 15.9665 96.9511 10.8964 101.325 7.65848L105.236 4.76362Z" fill="#4F9E91"/>
<path fill-rule="evenodd" clip-rule="evenodd" d="M123.128 25.6663C125.181 27.1858 125.181 29.6497 123.128 31.1692C121.076 32.6888 117.747 32.6888 115.694 31.1692L103.179 21.9046C107.994 19.2446 114.844 19.5335 119.218 22.7714L123.128 25.6663Z" fill="#EBE1C5"/>
<path fill-rule="evenodd" clip-rule="evenodd" d="M94.8904 38.9113C92.8377 40.431 89.5093 40.431 87.4566 38.9113C85.4038 37.3917 85.4038 34.9279 87.4566 33.4083L99.972 24.1437C103.565 27.7086 103.175 32.7787 98.801 36.0165L94.8904 38.9113Z" fill="#EBCC6E"/>
<path fill-rule="evenodd" clip-rule="evenodd" d="M76.9986 18.008C74.9458 16.4884 74.9458 14.0246 76.9986 12.505C79.0515 10.9853 82.3797 10.9853 84.4326 12.505L96.9481 21.7697C92.1323 24.4297 85.2831 24.1407 80.9092 20.9029L76.9986 18.008Z" fill="#ED834E"/>
<path fill-rule="evenodd" clip-rule="evenodd" d="M102.439 37.7766C105.466 35.2852 106.873 32.0973 106.659 28.9586L112.67 33.4081C112.685 33.4191 112.7 33.4302 112.715 33.4412V36.6178C112.715 38.7669 110.362 40.509 107.459 40.509C105.101 40.509 103.105 39.3597 102.439 37.7766Z" fill="#ED834E"/>
<path fill-rule="evenodd" clip-rule="evenodd" d="M78.5316 23.5958C81.8969 25.8366 86.2034 26.8781 90.4434 26.7201L84.4329 31.1695C84.4178 31.1806 84.4029 31.1918 84.3881 31.2028H80.0969C77.1938 31.2029 74.8403 29.4607 74.8403 27.3116C74.8403 25.5662 76.3929 24.089 78.5316 23.5958Z" fill="#4F9E91"/>
<path fill-rule="evenodd" clip-rule="evenodd" d="M121.595 20.0794C118.23 17.8386 113.923 16.7971 109.683 16.955L115.694 12.5057C115.709 12.4946 115.723 12.4835 115.738 12.4723H120.03C122.933 12.4723 125.287 14.2145 125.287 16.3636C125.287 18.1091 123.734 19.5862 121.595 20.0794Z" fill="#EBCC6E"/>
<path fill-rule="evenodd" clip-rule="evenodd" d="M97.6877 5.89829C94.6607 8.38953 93.2539 11.5774 93.4672 14.7163L87.4567 10.2668C87.4417 10.2558 87.4267 10.2447 87.4116 10.2336V7.05702C87.4116 4.90797 89.7651 3.16571 92.6682 3.16571C95.0262 3.16571 97.0215 4.31513 97.6877 5.89829Z" fill="#EBE1C5"/>
<path fill-rule="evenodd" clip-rule="evenodd" d="M92.6684 0C87.4033 0 83.135 3.15963 83.135 7.05719V8.42978C79.9674 7.81713 76.457 8.42945 73.9747 10.267C70.2517 13.023 70.2517 17.4914 73.9747 20.2474L75.2857 21.2179C72.4607 22.4428 70.5635 24.7133 70.5635 27.3118C70.5635 31.2094 74.8318 34.369 80.0969 34.369H81.9509C81.1233 36.7138 81.9505 39.3125 84.4327 41.1499C88.1558 43.9059 94.192 43.9059 97.9151 41.1499L101.826 38.2552C105.275 35.7015 106.886 32.3022 106.659 28.9587L112.67 33.4081C116.393 36.1641 122.429 36.1641 126.152 33.4081C129.876 30.6521 129.876 26.1837 126.152 23.4278L124.842 22.4574C127.666 21.2326 129.563 18.9621 129.563 16.3635C129.563 12.466 125.294 9.30633 120.03 9.30633H118.176C119.004 6.96138 118.176 4.36271 115.694 2.52519C111.971 -0.230828 105.935 -0.230828 102.212 2.52519L98.3011 5.42005C94.8515 7.97371 93.2403 11.3729 93.4677 14.7164L87.457 10.267C87.4419 10.2559 87.427 10.2449 87.4119 10.2338V7.05719C87.4119 4.90814 89.7653 3.16598 92.6684 3.16598C95.0265 3.16598 97.0218 4.3153 97.688 5.89846C97.8855 5.73596 98.0898 5.57642 98.301 5.42005L100.901 3.49569C99.2459 1.40445 96.1788 0 92.6684 0ZM115.739 12.4723C115.724 12.4834 115.709 12.4945 115.694 12.5056L109.683 16.9549C113.924 16.797 118.23 17.8384 121.595 20.0793C123.734 19.5861 125.287 18.109 125.287 16.3635C125.287 14.2145 122.934 12.4723 120.03 12.4723H115.739ZM84.3878 31.203C84.4027 31.1918 84.4177 31.1807 84.4327 31.1696L90.4432 26.7202C86.2032 26.8782 81.8969 25.8367 78.5316 23.596C76.3929 24.0892 74.8402 25.5663 74.8402 27.3118C74.8402 29.4609 77.1938 31.203 80.0969 31.203H84.3878ZM78.3677 23.4854C78.2045 23.3738 78.0437 23.2594 77.8853 23.1421V23.1422C78.0437 23.2595 78.2045 23.3738 78.3677 23.4854ZM107.458 43.6753C103.948 43.6753 100.881 42.2708 99.2261 40.1795L101.826 38.2552C102.037 38.0988 102.241 37.9393 102.439 37.7768C103.105 39.3599 105.1 40.5093 107.458 40.5093C110.361 40.5093 112.715 38.7672 112.715 36.6181V33.4415C113.947 34.3415 115.427 34.9429 116.992 35.2454V36.6181C116.992 40.5157 112.723 43.6753 107.458 43.6753ZM112.67 4.76382C110.617 3.24428 107.289 3.24428 105.236 4.76382L101.325 7.65868C96.9514 10.8966 96.561 15.9667 100.154 19.5316L112.67 10.2669C114.723 8.74722 114.723 6.28346 112.67 4.76382ZM123.127 31.1695C125.181 29.6499 125.181 27.1861 123.127 25.6665L119.217 22.7716C114.843 19.5338 107.994 19.2448 103.178 21.9048L115.694 31.1695C117.747 32.6892 121.076 32.6892 123.127 31.1695ZM94.8908 38.9113C92.8379 40.4309 89.5097 40.4309 87.4569 38.9113C85.4042 37.3916 85.4042 34.9279 87.4569 33.4082L99.9724 24.1435C103.566 27.7084 103.175 32.7786 98.8014 36.0164L94.8908 38.9113ZM76.9988 12.5056C74.9461 14.0252 74.9461 16.489 76.9988 18.0087L80.9094 20.9035C85.2835 24.1413 92.1325 24.4303 96.9482 21.7703L84.4327 12.5056C82.3799 10.9861 79.0517 10.9861 76.9988 12.5056Z" fill="#3D3A2C"/>
<path d="M0 14.2708H4.67521V25.025H12.705V27.9384H0V14.2708Z" fill="white"/>
<path d="M21.1935 28.2317C19.6263 28.2317 18.2527 28.0231 17.0729 27.606C15.8931 27.1758 14.9774 26.5892 14.3258 25.8463C13.692 25.0902 13.375 24.2234 13.375 23.2456C13.375 22.268 13.692 21.4077 14.3258 20.6647C14.9774 19.9086 15.8931 19.322 17.0729 18.9049C18.2527 18.4747 19.6263 18.2596 21.1935 18.2596C22.7608 18.2596 24.1342 18.4747 25.314 18.9049C26.4939 19.322 27.4008 19.9086 28.0346 20.6647C28.6862 21.4077 29.0119 22.268 29.0119 23.2456C29.0119 24.2234 28.6862 25.0902 28.0346 25.8463C27.4008 26.5892 26.4939 27.1758 25.314 27.606C24.1342 28.0231 22.7608 28.2317 21.1935 28.2317ZM21.1935 25.5529C22.1268 25.5529 22.8664 25.3509 23.4122 24.9468C23.9758 24.5296 24.2574 23.9626 24.2574 23.2456C24.2574 22.5287 23.9758 21.9682 23.4122 21.5641C22.8664 21.1469 22.1268 20.9385 21.1935 20.9385C20.2602 20.9385 19.5118 21.1469 18.9484 21.5641C18.4024 21.9682 18.1295 22.5287 18.1295 23.2456C18.1295 23.9626 18.4024 24.5296 18.9484 24.9468C19.5118 25.3509 20.2602 25.5529 21.1935 25.5529Z" fill="white"/>
<path d="M37.744 32.4357C36.8988 32.4357 36.0447 32.377 35.1819 32.2597C34.3367 32.1423 33.6058 31.986 32.9895 31.7904V29.4049C34.3806 29.8481 35.9654 30.0697 37.744 30.0697C39.0295 30.0697 39.954 29.8741 40.5174 29.4831C41.0986 29.0921 41.3891 28.5185 41.3891 27.7624V27.1954C40.8785 27.5213 40.2445 27.7754 39.4873 27.958C38.7477 28.1405 37.9553 28.2317 37.11 28.2317C35.7718 28.2317 34.592 28.0231 33.5706 27.606C32.5493 27.1889 31.748 26.6023 31.167 25.8463C30.6034 25.0902 30.3218 24.2234 30.3218 23.2456C30.3218 22.255 30.6034 21.3816 31.167 20.6256C31.7304 19.8695 32.5228 19.2894 33.5442 18.8853C34.5655 18.4682 35.7366 18.2596 37.0572 18.2596C38.871 18.2596 40.3677 18.6703 41.5475 19.4915V18.5529H46.038V27.2932C46.038 28.9226 45.3599 30.1871 44.0041 31.0865C42.6658 31.986 40.5791 32.4357 37.744 32.4357ZM38.2723 25.5725C38.9943 25.5725 39.637 25.4356 40.2004 25.1619C40.764 24.8881 41.1601 24.5232 41.3891 24.0669V22.4245C41.1425 21.9682 40.7375 21.6097 40.1741 21.349C39.6105 21.0753 38.9767 20.9385 38.2723 20.9385C37.3214 20.9385 36.5553 21.1469 35.9743 21.5641C35.3931 21.9682 35.1026 22.5222 35.1026 23.2261C35.1026 23.943 35.3931 24.5166 35.9743 24.9468C36.5553 25.3639 37.3214 25.5725 38.2723 25.5725Z" fill="white"/>
<path d="M55.0363 28.2317C53.4691 28.2317 52.0956 28.0231 50.9158 27.606C49.736 27.1758 48.8202 26.5892 48.1688 25.8463C47.5348 25.0902 47.2178 24.2234 47.2178 23.2456C47.2178 22.268 47.5348 21.4077 48.1688 20.6647C48.8202 19.9086 49.736 19.322 50.9158 18.9049C52.0956 18.4747 53.4691 18.2596 55.0363 18.2596C56.6035 18.2596 57.977 18.4747 59.1568 18.9049C60.3366 19.322 61.2435 19.9086 61.8775 20.6647C62.529 21.4077 62.8549 22.268 62.8549 23.2456C62.8549 24.2234 62.529 25.0902 61.8775 25.8463C61.2435 26.5892 60.3366 27.1758 59.1568 27.606C57.977 28.0231 56.6035 28.2317 55.0363 28.2317ZM55.0363 25.5529C55.9696 25.5529 56.7092 25.3509 57.2551 24.9468C57.8186 24.5296 58.1004 23.9626 58.1004 23.2456C58.1004 22.5287 57.8186 21.9682 57.2551 21.5641C56.7092 21.1469 55.9696 20.9385 55.0363 20.9385C54.1031 20.9385 53.3546 21.1469 52.7912 21.5641C52.2452 21.9682 51.9723 22.5287 51.9723 23.2456C51.9723 23.9626 52.2452 24.5296 52.7912 24.9468C53.3546 25.3509 54.1031 25.5529 55.0363 25.5529Z" fill="white"/>
<path d="M137.418 14.2708H142.094V27.9384H137.418V14.2708Z" fill="white"/>
<path d="M144.461 18.5529H148.952V19.4915C150.131 18.6703 151.628 18.2596 153.441 18.2596C154.762 18.2596 155.934 18.4682 156.954 18.8853C157.977 19.2894 158.768 19.8695 159.331 20.6256C159.895 21.3686 160.178 22.2355 160.178 23.2261C160.178 24.2038 159.895 25.0771 159.331 25.8463C158.768 26.6023 157.977 27.1889 156.954 27.606C155.951 28.0231 154.78 28.2317 153.441 28.2317C152.597 28.2317 151.786 28.134 151.012 27.9384C150.255 27.756 149.62 27.5017 149.11 27.1758V32.2205H144.461V18.5529ZM152.227 25.5529C153.178 25.5529 153.944 25.3444 154.524 24.9272C155.105 24.5101 155.397 23.943 155.397 23.2261C155.397 22.5091 155.105 21.9487 154.524 21.5445C153.944 21.1275 153.178 20.9189 152.227 20.9189C151.523 20.9189 150.888 21.0557 150.325 21.3295C149.761 21.5902 149.357 21.9487 149.11 22.4049V24.0669C149.357 24.5232 149.761 24.8881 150.325 25.1619C150.888 25.4226 151.523 25.5529 152.227 25.5529Z" fill="white"/>
<path d="M167.108 28.2317C166.087 28.2317 165.022 28.1535 163.912 27.9971C162.803 27.8537 161.921 27.6451 161.271 27.3714V24.849C161.992 25.1619 162.855 25.4226 163.859 25.6312C164.88 25.8267 165.813 25.9244 166.659 25.9244C167.275 25.9244 167.724 25.8918 168.005 25.8267C168.288 25.7615 168.429 25.6312 168.429 25.4356C168.429 25.2792 168.332 25.1553 168.139 25.0641C167.963 24.9599 167.627 24.8555 167.134 24.7513C166.659 24.634 166.105 24.5101 165.47 24.3797C164.396 24.1451 163.552 23.9039 162.935 23.6563C162.318 23.4086 161.861 23.0957 161.561 22.7177C161.262 22.3397 161.112 21.864 161.112 21.2904C161.112 20.2736 161.649 19.5176 162.723 19.0222C163.815 18.5138 165.303 18.2596 167.187 18.2596C168.103 18.2596 169.063 18.3314 170.066 18.4747C171.088 18.6181 171.853 18.8071 172.365 19.0418V21.5251C171.837 21.2643 171.131 21.0492 170.251 20.8798C169.389 20.7103 168.578 20.6256 167.821 20.6256C167.223 20.6256 166.756 20.6712 166.421 20.7624C166.087 20.8407 165.92 20.984 165.92 21.1926C165.92 21.3882 166.087 21.5381 166.421 21.6423C166.756 21.7466 167.355 21.877 168.217 22.0334C168.781 22.1377 169.019 22.1833 168.93 22.1702C170.057 22.3919 170.928 22.6395 171.545 22.9133C172.162 23.187 172.593 23.5129 172.84 23.8909C173.104 24.2559 173.236 24.7252 173.236 25.2988C173.236 26.1982 172.708 26.9151 171.652 27.4496C170.612 27.971 169.097 28.2317 167.108 28.2317Z" fill="white"/>
<path d="M180.176 28.2318C178.434 28.2318 177.122 27.8733 176.242 27.1564C175.379 26.4394 174.947 25.4944 174.947 24.3212V18.553H179.596V23.9301C179.596 25.0121 180.256 25.553 181.577 25.553C182.176 25.553 182.722 25.4488 183.215 25.2402C183.707 25.0316 184.112 24.7253 184.429 24.3212V18.553H189.078V27.9385H184.589V26.9218C184.043 27.3519 183.382 27.6778 182.607 27.8994C181.833 28.121 181.022 28.2318 180.176 28.2318Z" fill="white"/>
<path d="M191.458 18.5529H195.765V19.5697C196.293 19.1526 196.901 18.8332 197.587 18.6116C198.273 18.3769 199.004 18.2596 199.779 18.2596C200.73 18.2596 201.488 18.3639 202.051 18.5725C202.633 18.7811 203.098 19.0939 203.451 19.511C203.979 19.12 204.622 18.8136 205.379 18.5921C206.137 18.3705 206.903 18.2596 207.677 18.2596C209.35 18.2596 210.539 18.5791 211.243 19.2178C211.947 19.8435 212.299 20.7494 212.299 21.9356V27.9384H207.862V22.4245C207.862 21.903 207.73 21.5251 207.465 21.2904C207.202 21.0557 206.761 20.9385 206.146 20.9385C205.353 20.9385 204.709 21.1469 204.217 21.5641C204.234 21.7857 204.243 22.1247 204.243 22.5809V27.9384H199.806V22.2876C199.806 21.8053 199.692 21.4598 199.463 21.2513C199.233 21.0427 198.828 20.9385 198.248 20.9385C197.349 20.9385 196.575 21.3099 195.923 22.053V27.9384H191.458V18.5529Z" fill="white"/>
</svg>
