<svg width="1147" height="44" viewBox="0 0 1147 44" fill="none" xmlns="http://www.w3.org/2000/svg">
<path d="M17.9568 41.6784L11.9976 34.0376L20.743 22.8551L26.3005 29.9812L59.107 29.9681L49.798 41.7838L17.9568 41.6784Z" fill="#FFAD64"/>
<path d="M64.9646 22.3815L59.0054 30.0221L41.5505 30.0069L47.1085 22.881L30.6899 1.85583L49.1675 1.91585L64.9646 22.3815Z" fill="#ADD4D3"/>
<path d="M18.8747 1.81458H30.7931L39.5028 13.0125L28.3871 13.0122L11.9992 34.0504L2.83057 22.1748L18.8747 1.81458Z" fill="#FB8351"/>
<path fill-rule="evenodd" clip-rule="evenodd" d="M32.2463 0.0456419L32.2108 0H17.4668L0 22.1657L11.99 37.6957L12.0047 37.6769L16.5374 43.4886L51.2023 43.6035L63.3759 28.1517H63.2949L67.792 22.3858L50.5939 0.105231L32.2463 0.0456419ZM43.6518 14.8275H43.7437L35.0767 3.68456L47.7413 3.72566L62.1375 22.3764L57.6314 28.154L45.8226 28.1587L49.9399 22.88L43.6518 14.8275ZM29.2438 3.62962L35.1536 11.1977L26.9712 11.1975L12.9627 29.181L12.0072 30.4029L5.6619 22.1842L20.2831 3.62962H29.2438ZM23.5619 22.8402L29.8037 14.8272L37.9881 14.8274L44.2772 22.8811L40.159 28.161L27.7154 28.166L23.5619 22.8402ZM14.8338 34.045L17.2085 30.9965L20.7398 26.4812L24.8853 31.7968L37.327 31.7918L37.3069 31.8176L54.7996 31.8329L48.3932 39.9644L19.3756 39.8683L14.8338 34.045Z" fill="#333237"/>
<path d="M82.0712 37.2894V28.7931H77.8291V27.8392H87.9389V28.7931H83.6967V37.2894H82.0712Z" fill="white"/>
<path d="M92.4556 37.4365C90.7772 37.4365 89.5218 37.1382 88.6893 36.5414C87.8566 35.9447 87.4404 35.0251 87.4404 33.7826C87.4404 32.6674 87.7972 31.7919 88.5109 31.156C89.2376 30.5103 90.3809 30.1874 91.9403 30.1874C92.8653 30.1874 93.6251 30.3146 94.2199 30.5691C94.8277 30.8135 95.2772 31.156 95.5679 31.5962C95.8718 32.0267 96.0238 32.5158 96.0238 33.0636V34.3696H89.0659C89.1187 34.8979 89.2707 35.3136 89.5218 35.617C89.7861 35.9202 90.1759 36.1403 90.6914 36.2773C91.2199 36.4044 91.9139 36.468 92.7728 36.468C93.7375 36.468 94.6229 36.3458 95.429 36.1012V37.0403C95.0194 37.1675 94.5568 37.2654 94.0415 37.3338C93.5392 37.4023 93.0107 37.4365 92.4556 37.4365ZM89.0659 33.5039H94.5767V32.9316C94.5767 32.3641 94.3719 31.9288 93.9621 31.6256C93.5658 31.3125 92.9049 31.156 91.9798 31.156C90.8566 31.156 90.0901 31.3516 89.6804 31.743C89.2707 32.1342 89.0659 32.7212 89.0659 33.5039Z" fill="white"/>
<path d="M102.847 37.4365C101.208 37.4365 99.9921 37.1235 99.1992 36.4974C98.4063 35.8616 98.0098 34.9664 98.0098 33.812C98.0098 32.5892 98.4591 31.6794 99.3578 31.0826C100.256 30.4859 101.466 30.1874 102.985 30.1874C103.607 30.1874 104.122 30.2217 104.532 30.2902C104.941 30.3489 105.338 30.4467 105.721 30.5836V31.5375C105.007 31.2832 104.195 31.156 103.283 31.156C102.12 31.156 101.221 31.3615 100.587 31.7723C99.9524 32.1734 99.6353 32.8533 99.6353 33.812C99.6353 34.7316 99.9129 35.4066 100.468 35.8371C101.023 36.2578 101.941 36.468 103.223 36.468C104.135 36.468 104.974 36.3409 105.741 36.0865V37.055C105.331 37.1822 104.888 37.2751 104.413 37.3338C103.95 37.4023 103.428 37.4365 102.847 37.4365Z" fill="white"/>
<path d="M107.563 37.2894V27.3989H109.188V31.0822C109.625 30.8181 110.133 30.6029 110.715 30.4366C111.31 30.2702 111.997 30.187 112.776 30.187C113.913 30.187 114.765 30.3925 115.334 30.8034C115.902 31.2143 116.186 31.8599 116.186 32.7403V37.2894H114.561V32.7844C114.561 32.1779 114.376 31.7572 114.006 31.5224C113.649 31.2779 113.054 31.1555 112.221 31.1555C111.693 31.1555 111.144 31.2436 110.576 31.4197C110.021 31.586 109.559 31.8062 109.188 32.08V37.2894H107.563Z" fill="white"/>
<path d="M122.669 37.4364C121.347 37.4364 120.29 37.2212 119.497 36.7907C118.704 36.3603 118.308 35.7831 118.308 35.0591C118.308 34.3939 118.585 33.8216 119.14 33.3423C119.695 32.8629 120.455 32.4373 121.42 32.0656C120.904 31.6841 120.468 31.327 120.112 30.9944C119.755 30.6618 119.576 30.2607 119.576 29.7911C119.576 29.2041 119.847 28.7101 120.389 28.309C120.944 27.8981 121.724 27.6927 122.728 27.6927C123.706 27.6927 124.466 27.8835 125.008 28.265C125.549 28.6465 125.821 29.1552 125.821 29.7911C125.821 30.3194 125.629 30.7645 125.245 31.1265C124.862 31.4885 124.314 31.8553 123.6 32.2271L126.891 34.707C127.115 34.345 127.228 33.8852 127.228 33.3276V33.1222H128.517V33.3276C128.517 33.7092 128.457 34.0809 128.338 34.4429C128.22 34.8048 128.047 35.1179 127.823 35.382L129.607 36.7174L128.615 37.3777L127.029 36.2185C126.567 36.6391 125.966 36.9473 125.226 37.1429C124.486 37.3386 123.633 37.4364 122.669 37.4364ZM122.589 31.6401C123.211 31.3564 123.68 31.0874 123.997 30.833C124.314 30.5689 124.473 30.2363 124.473 29.8352C124.473 29.4634 124.334 29.1699 124.056 28.9547C123.792 28.7297 123.349 28.6172 122.728 28.6172C122.094 28.6172 121.631 28.7346 121.341 28.9694C121.063 29.2041 120.924 29.4928 120.924 29.8352C120.924 30.1482 121.07 30.4368 121.36 30.7009C121.664 30.9651 122.074 31.2781 122.589 31.6401ZM122.669 36.5706C123.435 36.5706 124.089 36.4875 124.631 36.3212C125.186 36.145 125.655 35.8859 126.039 35.5434L122.411 32.7993C121.552 33.0928 120.911 33.4107 120.488 33.7531C120.079 34.0857 119.874 34.5113 119.874 35.0299C119.874 35.5385 120.138 35.925 120.667 36.1891C121.195 36.4434 121.863 36.5706 122.669 36.5706Z" fill="#FB8351"/>
<path d="M78.4697 20.9797V7.89484H83.6298V18.0539H91.5896V20.9797H78.4697Z" fill="#FB8351"/>
<path d="M99.8904 21.183C97.2921 21.183 95.3707 20.7563 94.1265 19.9029C92.9006 19.0495 92.2876 17.8034 92.2876 16.1644C92.2876 14.539 92.9097 13.2996 94.154 12.4462C95.3983 11.5793 97.3104 11.1458 99.8904 11.1458C102.489 11.1458 104.41 11.5793 105.654 12.4462C106.917 13.2996 107.548 14.539 107.548 16.1644C107.548 17.8034 106.926 19.0495 105.682 19.9029C104.438 20.7563 102.507 21.183 99.8904 21.183ZM99.8904 18.3994C100.732 18.3994 101.336 18.2233 101.702 17.8711C102.086 17.5189 102.278 16.95 102.278 16.1644C102.278 15.3923 102.086 14.8302 101.702 14.478C101.336 14.1122 100.732 13.9294 99.8904 13.9294C99.067 13.9294 98.4723 14.1122 98.1064 14.478C97.7404 14.8302 97.5574 15.3923 97.5574 16.1644C97.5574 16.95 97.7404 17.5189 98.1064 17.8711C98.4723 18.2233 99.067 18.3994 99.8904 18.3994Z" fill="#FB8351"/>
<path d="M115.191 24.5558C114.55 24.5558 113.855 24.5355 113.105 24.4948C112.354 24.4678 111.641 24.4136 110.964 24.3323C110.305 24.2511 109.756 24.1562 109.317 24.0478V21.6096C109.811 21.7316 110.378 21.8332 111.019 21.9144C111.677 21.9957 112.345 22.0567 113.022 22.0973C113.699 22.1379 114.321 22.1583 114.889 22.1583C115.858 22.1583 116.618 22.1176 117.167 22.0364C117.734 21.9687 118.018 21.84 118.018 21.6503C118.018 21.4878 117.926 21.3794 117.743 21.3252C117.56 21.2845 117.213 21.2643 116.7 21.2643H113.269C111.934 21.2643 110.9 21.1085 110.168 20.797C109.454 20.4719 109.097 19.991 109.097 19.3544C109.097 18.4603 109.765 17.8373 111.101 17.4851C110.351 17.2006 109.802 16.8417 109.454 16.4082C109.106 15.9748 108.933 15.4262 108.933 14.7624C108.933 13.5163 109.5 12.6019 110.634 12.0195C111.787 11.4371 113.443 11.1458 115.602 11.1458C116.06 11.1458 116.572 11.1729 117.139 11.2271C117.707 11.2677 118.118 11.3084 118.374 11.349H123.48L123.37 13.6652H121.641C121.97 13.9768 122.135 14.3561 122.135 14.8031C122.135 15.7919 121.741 16.5776 120.954 17.16C120.186 17.7289 118.969 18.0134 117.304 18.0134C117.066 18.0134 116.81 18.0066 116.535 17.993C116.261 17.966 116.005 17.9457 115.767 17.932C115.364 17.9592 115.017 18.0134 114.724 18.0947C114.431 18.1759 114.285 18.3113 114.285 18.501C114.285 18.6364 114.367 18.7313 114.532 18.7854C114.697 18.8261 114.925 18.8464 115.218 18.8464H118.21C119.546 18.8464 120.598 19.0767 121.366 19.5372C122.135 19.9978 122.519 20.675 122.519 21.5691C122.519 22.5172 121.924 23.2486 120.735 23.7634C119.546 24.2917 117.698 24.5558 115.191 24.5558ZM115.63 15.9206C116.435 15.9206 116.993 15.819 117.304 15.6158C117.615 15.4126 117.771 15.074 117.771 14.5999C117.771 14.1258 117.615 13.7804 117.304 13.5637C116.993 13.347 116.435 13.2386 115.63 13.2386C114.88 13.2386 114.331 13.347 113.983 13.5637C113.654 13.7669 113.489 14.1122 113.489 14.5999C113.489 15.0605 113.644 15.3991 113.955 15.6158C114.285 15.819 114.843 15.9206 115.63 15.9206Z" fill="#FB8351"/>
<path d="M131.895 21.183C129.296 21.183 127.375 20.7563 126.131 19.9029C124.905 19.0495 124.292 17.8034 124.292 16.1644C124.292 14.539 124.914 13.2996 126.158 12.4462C127.402 11.5793 129.315 11.1458 131.895 11.1458C134.493 11.1458 136.414 11.5793 137.658 12.4462C138.922 13.2996 139.552 14.539 139.552 16.1644C139.552 17.8034 138.93 19.0495 137.686 19.9029C136.441 20.7563 134.511 21.183 131.895 21.183ZM131.895 18.3994C132.736 18.3994 133.34 18.2233 133.706 17.8711C134.09 17.5189 134.283 16.95 134.283 16.1644C134.283 15.3923 134.09 14.8302 133.706 14.478C133.34 14.1122 132.736 13.9294 131.895 13.9294C131.072 13.9294 130.476 14.1122 130.11 14.478C129.744 14.8302 129.562 15.3923 129.562 16.1644C129.562 16.95 129.744 17.5189 130.11 17.8711C130.476 18.2233 131.072 18.3994 131.895 18.3994Z" fill="#FB8351"/>
<path d="M141.82 10.0686V7.3053H147.392V10.0686H141.82ZM142.231 20.9794V14.1322H140.339L140.777 11.3487H147.392V20.9794H142.231Z" fill="white"/>
<path d="M149.867 25.3685V11.349H154.342L154.589 12.121C155.118 11.8095 155.695 11.5724 156.317 11.4099C156.958 11.2338 157.699 11.1458 158.541 11.1458C160.48 11.1458 161.972 11.5115 163.015 12.2429C164.075 12.9608 164.606 14.1867 164.606 15.9205C164.606 17.6409 164.048 18.9479 162.932 19.842C161.816 20.736 160.279 21.1829 158.321 21.1829C157.022 21.1829 155.924 21.0001 155.027 20.6344V25.3685H149.867ZM157.003 18.3994C157.754 18.3994 158.331 18.2029 158.733 17.8101C159.136 17.4173 159.337 16.8078 159.337 15.9815C159.337 15.1823 159.144 14.6405 158.76 14.3561C158.394 14.0716 157.827 13.9294 157.058 13.9294C156.29 13.9294 155.613 14.119 155.027 14.4983V17.9118C155.321 18.0743 155.613 18.1962 155.906 18.2774C156.198 18.3587 156.564 18.3994 157.003 18.3994Z" fill="white"/>
<path d="M171.483 21.1829C170.367 21.1829 169.315 21.122 168.327 21.0001C167.356 20.8917 166.589 20.7495 166.021 20.5734V17.8304C166.661 18.0472 167.421 18.2165 168.298 18.3384C169.196 18.4603 169.956 18.5213 170.576 18.5213C171.236 18.5213 171.73 18.5078 172.059 18.4806C172.408 18.4536 172.58 18.3384 172.58 18.1352C172.58 17.905 172.279 17.7289 171.675 17.607C171.072 17.485 170.312 17.3089 169.397 17.0787C168.207 16.7671 167.319 16.4014 166.734 15.9815C166.149 15.5616 165.856 14.9521 165.856 14.1528C165.856 13.1912 166.369 12.453 167.394 11.9382C168.418 11.4099 170.028 11.1458 172.223 11.1458C173.065 11.1458 173.935 11.1931 174.831 11.288C175.727 11.3828 176.432 11.4912 176.945 11.6131V14.2951C176.395 14.119 175.792 13.9903 175.134 13.9091C174.493 13.8277 173.908 13.7872 173.377 13.7872C172.791 13.7872 172.269 13.8074 171.812 13.8481C171.354 13.8887 171.126 14.0038 171.126 14.1935C171.126 14.4102 171.383 14.566 171.895 14.6608C172.425 14.7557 173.13 14.9047 174.007 15.1078C174.997 15.3245 175.764 15.5616 176.314 15.819C176.881 16.0763 177.274 16.3878 177.494 16.7536C177.731 17.1194 177.851 17.573 177.851 18.1149C177.851 19.0902 177.31 19.8487 176.231 20.3905C175.169 20.9188 173.586 21.1829 171.483 21.1829Z" fill="white"/>
<path d="M184.501 21.1826C182.982 21.1826 181.793 20.8643 180.933 20.2277C180.074 19.591 179.644 18.6564 179.644 17.4237V11.3486H184.804V17.119C184.804 17.9587 185.38 18.3787 186.532 18.3787C186.953 18.3787 187.365 18.311 187.768 18.1755C188.17 18.0401 188.49 17.8707 188.728 17.6676V11.3486H193.888V20.9794H189.058L188.921 20.2479C188.409 20.5188 187.777 20.7424 187.027 20.9184C186.295 21.0945 185.453 21.1826 184.501 21.1826Z" fill="white"/>
<path d="M196.346 20.9797V11.349H201.121L201.258 12.121C201.826 11.8366 202.457 11.6064 203.152 11.4302C203.866 11.2406 204.644 11.1458 205.486 11.1458C206.326 11.1458 206.986 11.2338 207.461 11.4099C207.938 11.586 208.322 11.8433 208.614 12.182C209.2 11.8705 209.859 11.6199 210.591 11.4302C211.34 11.2406 212.22 11.1458 213.226 11.1458C214.744 11.1458 215.861 11.4438 216.574 12.0397C217.288 12.6222 217.645 13.5163 217.645 14.7218V20.9797H212.566V15.1688C212.566 14.7353 212.448 14.4306 212.21 14.2545C211.973 14.0648 211.579 13.97 211.029 13.97C210.316 13.97 209.73 14.1597 209.274 14.5389C209.309 14.715 209.328 14.8844 209.328 15.0469C209.328 15.1958 209.328 15.3652 209.328 15.5548V20.9797H204.552V15.1078C204.552 14.715 204.461 14.4306 204.278 14.2545C204.094 14.0648 203.747 13.97 203.235 13.97C202.887 13.97 202.549 14.0378 202.219 14.1732C201.889 14.3087 201.597 14.4712 201.341 14.6608V20.9797H196.346Z" fill="white"/>
<path d="M138.011 37.5578C136.636 37.5578 135.493 37.367 134.581 36.9854C133.683 36.5941 133.009 36.0512 132.56 35.3566C132.11 34.6523 131.886 33.8305 131.886 32.8914C131.886 31.8642 132.097 30.969 132.52 30.206C132.942 29.4429 133.603 28.8559 134.502 28.445C135.402 28.0244 136.563 27.8141 137.991 27.8141C138.731 27.8141 139.398 27.8532 139.993 27.9315C140.601 28.0098 141.169 28.1173 141.699 28.2543V29.3109C141.169 29.1641 140.608 29.0516 140.013 28.9733C139.418 28.8853 138.791 28.8412 138.13 28.8412C136.98 28.8412 136.068 29.0027 135.394 29.3256C134.721 29.6483 134.238 30.113 133.947 30.7196C133.656 31.3261 133.51 32.0501 133.51 32.8914C133.51 34.0555 133.882 34.9555 134.621 35.5915C135.374 36.2176 136.558 36.5306 138.169 36.5306C138.764 36.5306 139.365 36.4963 139.973 36.4278C140.594 36.3593 141.169 36.2518 141.699 36.105V37.1763C141.182 37.2936 140.621 37.3865 140.013 37.4551C139.418 37.5235 138.751 37.5578 138.011 37.5578Z" fill="white"/>
<path d="M148.373 37.5574C146.734 37.5574 145.538 37.2492 144.785 36.6329C144.045 36.0068 143.676 35.1068 143.676 33.9328C143.676 32.7686 144.053 31.8735 144.805 31.2474C145.558 30.6213 146.749 30.3083 148.373 30.3083C149.999 30.3083 151.189 30.6213 151.941 31.2474C152.695 31.8735 153.071 32.7686 153.071 33.9328C153.071 35.1068 152.702 36.0068 151.961 36.6329C151.222 37.2492 150.026 37.5574 148.373 37.5574ZM148.373 36.5302C149.496 36.5302 150.29 36.3247 150.752 35.9138C151.215 35.4932 151.446 34.8329 151.446 33.9328C151.446 33.0328 151.209 32.3774 150.732 31.9665C150.27 31.5458 149.483 31.3355 148.373 31.3355C147.264 31.3355 146.47 31.5458 145.995 31.9665C145.533 32.3774 145.301 33.0328 145.301 33.9328C145.301 34.8329 145.533 35.4932 145.995 35.9138C146.457 36.3247 147.25 36.5302 148.373 36.5302Z" fill="white"/>
<path d="M155.058 37.4109V36.3984H156.525V37.4109H155.058Z" fill="white"/>
<path fill-rule="evenodd" clip-rule="evenodd" d="M394.236 4.76362C396.288 3.24408 399.617 3.24408 401.67 4.76362C403.722 6.28326 403.722 8.74702 401.67 10.2667L389.154 19.5314C385.561 15.9665 385.951 10.8964 390.325 7.65848L394.236 4.76362Z" fill="#4F9E91"/>
<path fill-rule="evenodd" clip-rule="evenodd" d="M412.128 25.6663C414.181 27.1858 414.181 29.6497 412.128 31.1692C410.076 32.6888 406.747 32.6888 404.694 31.1692L392.179 21.9046C396.994 19.2446 403.844 19.5335 408.218 22.7714L412.128 25.6663Z" fill="#EBE1C5"/>
<path fill-rule="evenodd" clip-rule="evenodd" d="M383.89 38.9113C381.838 40.431 378.509 40.431 376.457 38.9113C374.404 37.3917 374.404 34.9279 376.457 33.4083L388.972 24.1437C392.565 27.7086 392.175 32.7787 387.801 36.0165L383.89 38.9113Z" fill="#EBCC6E"/>
<path fill-rule="evenodd" clip-rule="evenodd" d="M365.999 18.008C363.946 16.4884 363.946 14.0246 365.999 12.505C368.051 10.9853 371.38 10.9853 373.433 12.505L385.948 21.7697C381.132 24.4297 374.283 24.1407 369.909 20.9029L365.999 18.008Z" fill="#ED834E"/>
<path fill-rule="evenodd" clip-rule="evenodd" d="M391.439 37.7766C394.466 35.2852 395.873 32.0973 395.659 28.9586L401.67 33.4081C401.685 33.4191 401.7 33.4302 401.715 33.4412V36.6178C401.715 38.7669 399.362 40.509 396.459 40.509C394.101 40.509 392.105 39.3597 391.439 37.7766Z" fill="#ED834E"/>
<path fill-rule="evenodd" clip-rule="evenodd" d="M367.532 23.5958C370.897 25.8366 375.203 26.8781 379.443 26.7201L373.433 31.1695C373.418 31.1806 373.403 31.1918 373.388 31.2028H369.097C366.194 31.2029 363.84 29.4607 363.84 27.3116C363.84 25.5662 365.393 24.089 367.532 23.5958Z" fill="#4F9E91"/>
<path fill-rule="evenodd" clip-rule="evenodd" d="M410.595 20.0794C407.23 17.8386 402.923 16.7971 398.683 16.955L404.694 12.5057C404.709 12.4946 404.723 12.4835 404.738 12.4723H409.03C411.933 12.4723 414.287 14.2145 414.287 16.3636C414.287 18.1091 412.734 19.5862 410.595 20.0794Z" fill="#EBCC6E"/>
<path fill-rule="evenodd" clip-rule="evenodd" d="M386.688 5.89829C383.661 8.38953 382.254 11.5774 382.467 14.7163L376.457 10.2668C376.442 10.2558 376.427 10.2447 376.412 10.2336V7.05702C376.412 4.90797 378.765 3.16571 381.668 3.16571C384.026 3.16571 386.021 4.31513 386.688 5.89829Z" fill="#EBE1C5"/>
<path fill-rule="evenodd" clip-rule="evenodd" d="M381.668 0C376.403 0 372.135 3.15963 372.135 7.05719V8.42978C368.967 7.81713 365.457 8.42945 362.975 10.267C359.252 13.023 359.252 17.4914 362.975 20.2474L364.286 21.2179C361.461 22.4428 359.563 24.7133 359.563 27.3118C359.563 31.2094 363.832 34.369 369.097 34.369H370.951C370.123 36.7138 370.95 39.3125 373.433 41.1499C377.156 43.9059 383.192 43.9059 386.915 41.1499L390.826 38.2552C394.275 35.7015 395.886 32.3022 395.659 28.9587L401.67 33.4081C405.393 36.1641 411.429 36.1641 415.152 33.4081C418.876 30.6521 418.876 26.1837 415.152 23.4278L413.842 22.4574C416.666 21.2326 418.563 18.9621 418.563 16.3635C418.563 12.466 414.294 9.30633 409.03 9.30633H407.176C408.004 6.96138 407.176 4.36271 404.694 2.52519C400.971 -0.230828 394.935 -0.230828 391.212 2.52519L387.301 5.42005C383.851 7.97371 382.24 11.3729 382.468 14.7164L376.457 10.267C376.442 10.2559 376.427 10.2449 376.412 10.2338V7.05719C376.412 4.90814 378.765 3.16598 381.668 3.16598C384.026 3.16598 386.022 4.3153 386.688 5.89846C386.885 5.73596 387.09 5.57642 387.301 5.42005L389.901 3.49569C388.246 1.40445 385.179 0 381.668 0ZM404.739 12.4723C404.724 12.4834 404.709 12.4945 404.694 12.5056L398.683 16.9549C402.924 16.797 407.23 17.8384 410.595 20.0793C412.734 19.5861 414.287 18.109 414.287 16.3635C414.287 14.2145 411.934 12.4723 409.03 12.4723H404.739ZM373.388 31.203C373.403 31.1918 373.418 31.1807 373.433 31.1696L379.443 26.7202C375.203 26.8782 370.897 25.8367 367.532 23.596C365.393 24.0892 363.84 25.5663 363.84 27.3118C363.84 29.4609 366.194 31.203 369.097 31.203H373.388ZM367.368 23.4854C367.205 23.3738 367.044 23.2594 366.885 23.1421V23.1422C367.044 23.2595 367.205 23.3738 367.368 23.4854ZM396.458 43.6753C392.948 43.6753 389.881 42.2708 388.226 40.1795L390.826 38.2552C391.037 38.0988 391.241 37.9393 391.439 37.7768C392.105 39.3599 394.1 40.5093 396.458 40.5093C399.361 40.5093 401.715 38.7672 401.715 36.6181V33.4415C402.947 34.3415 404.427 34.9429 405.992 35.2454V36.6181C405.992 40.5157 401.723 43.6753 396.458 43.6753ZM401.67 4.76382C399.617 3.24428 396.289 3.24428 394.236 4.76382L390.325 7.65868C385.951 10.8966 385.561 15.9667 389.154 19.5316L401.67 10.2669C403.723 8.74722 403.723 6.28346 401.67 4.76382ZM412.127 31.1695C414.181 29.6499 414.181 27.1861 412.127 25.6665L408.217 22.7716C403.843 19.5338 396.994 19.2448 392.178 21.9048L404.694 31.1695C406.747 32.6892 410.076 32.6892 412.127 31.1695ZM383.891 38.9113C381.838 40.4309 378.51 40.4309 376.457 38.9113C374.404 37.3916 374.404 34.9279 376.457 33.4082L388.972 24.1435C392.566 27.7084 392.175 32.7786 387.801 36.0164L383.891 38.9113ZM365.999 12.5056C363.946 14.0252 363.946 16.489 365.999 18.0087L369.909 20.9035C374.283 24.1413 381.133 24.4303 385.948 21.7703L373.433 12.5056C371.38 10.9861 368.052 10.9861 365.999 12.5056Z" fill="#3D3A2C"/>
<path d="M289 14.2708H293.675V25.025H301.705V27.9384H289V14.2708Z" fill="white"/>
<path d="M310.194 28.2317C308.626 28.2317 307.253 28.0231 306.073 27.606C304.893 27.1758 303.977 26.5892 303.326 25.8463C302.692 25.0902 302.375 24.2234 302.375 23.2456C302.375 22.268 302.692 21.4077 303.326 20.6647C303.977 19.9086 304.893 19.322 306.073 18.9049C307.253 18.4747 308.626 18.2596 310.194 18.2596C311.761 18.2596 313.134 18.4747 314.314 18.9049C315.494 19.322 316.401 19.9086 317.035 20.6647C317.686 21.4077 318.012 22.268 318.012 23.2456C318.012 24.2234 317.686 25.0902 317.035 25.8463C316.401 26.5892 315.494 27.1758 314.314 27.606C313.134 28.0231 311.761 28.2317 310.194 28.2317ZM310.194 25.5529C311.127 25.5529 311.866 25.3509 312.412 24.9468C312.976 24.5296 313.257 23.9626 313.257 23.2456C313.257 22.5287 312.976 21.9682 312.412 21.5641C311.866 21.1469 311.127 20.9385 310.194 20.9385C309.26 20.9385 308.512 21.1469 307.948 21.5641C307.402 21.9682 307.129 22.5287 307.129 23.2456C307.129 23.9626 307.402 24.5296 307.948 24.9468C308.512 25.3509 309.26 25.5529 310.194 25.5529Z" fill="white"/>
<path d="M326.744 32.4357C325.899 32.4357 325.045 32.377 324.182 32.2597C323.337 32.1423 322.606 31.986 321.99 31.7904V29.4049C323.381 29.8481 324.965 30.0697 326.744 30.0697C328.029 30.0697 328.954 29.8741 329.517 29.4831C330.099 29.0921 330.389 28.5185 330.389 27.7624V27.1954C329.878 27.5213 329.245 27.7754 328.487 27.958C327.748 28.1405 326.955 28.2317 326.11 28.2317C324.772 28.2317 323.592 28.0231 322.571 27.606C321.549 27.1889 320.748 26.6023 320.167 25.8463C319.603 25.0902 319.322 24.2234 319.322 23.2456C319.322 22.255 319.603 21.3816 320.167 20.6256C320.73 19.8695 321.523 19.2894 322.544 18.8853C323.565 18.4682 324.737 18.2596 326.057 18.2596C327.871 18.2596 329.368 18.6703 330.548 19.4915V18.5529H335.038V27.2932C335.038 28.9226 334.36 30.1871 333.004 31.0865C331.666 31.986 329.579 32.4357 326.744 32.4357ZM327.272 25.5725C327.994 25.5725 328.637 25.4356 329.2 25.1619C329.764 24.8881 330.16 24.5232 330.389 24.0669V22.4245C330.143 21.9682 329.738 21.6097 329.174 21.349C328.611 21.0753 327.977 20.9385 327.272 20.9385C326.321 20.9385 325.555 21.1469 324.974 21.5641C324.393 21.9682 324.103 22.5222 324.103 23.2261C324.103 23.943 324.393 24.5166 324.974 24.9468C325.555 25.3639 326.321 25.5725 327.272 25.5725Z" fill="white"/>
<path d="M344.036 28.2317C342.469 28.2317 341.096 28.0231 339.916 27.606C338.736 27.1758 337.82 26.5892 337.169 25.8463C336.535 25.0902 336.218 24.2234 336.218 23.2456C336.218 22.268 336.535 21.4077 337.169 20.6647C337.82 19.9086 338.736 19.322 339.916 18.9049C341.096 18.4747 342.469 18.2596 344.036 18.2596C345.604 18.2596 346.977 18.4747 348.157 18.9049C349.337 19.322 350.244 19.9086 350.878 20.6647C351.529 21.4077 351.855 22.268 351.855 23.2456C351.855 24.2234 351.529 25.0902 350.878 25.8463C350.244 26.5892 349.337 27.1758 348.157 27.606C346.977 28.0231 345.604 28.2317 344.036 28.2317ZM344.036 25.5529C344.97 25.5529 345.709 25.3509 346.255 24.9468C346.819 24.5296 347.1 23.9626 347.1 23.2456C347.1 22.5287 346.819 21.9682 346.255 21.5641C345.709 21.1469 344.97 20.9385 344.036 20.9385C343.103 20.9385 342.355 21.1469 341.791 21.5641C341.245 21.9682 340.972 22.5287 340.972 23.2456C340.972 23.9626 341.245 24.5296 341.791 24.9468C342.355 25.3509 343.103 25.5529 344.036 25.5529Z" fill="white"/>
<path d="M426.418 14.2708H431.094V27.9384H426.418V14.2708Z" fill="white"/>
<path d="M433.461 18.5529H437.952V19.4915C439.131 18.6703 440.628 18.2596 442.441 18.2596C443.762 18.2596 444.934 18.4682 445.954 18.8853C446.977 19.2894 447.768 19.8695 448.331 20.6256C448.895 21.3686 449.178 22.2355 449.178 23.2261C449.178 24.2038 448.895 25.0771 448.331 25.8463C447.768 26.6023 446.977 27.1889 445.954 27.606C444.951 28.0231 443.78 28.2317 442.441 28.2317C441.597 28.2317 440.786 28.134 440.012 27.9384C439.255 27.756 438.62 27.5017 438.11 27.1758V32.2205H433.461V18.5529ZM441.227 25.5529C442.178 25.5529 442.944 25.3444 443.524 24.9272C444.105 24.5101 444.397 23.943 444.397 23.2261C444.397 22.5091 444.105 21.9487 443.524 21.5445C442.944 21.1275 442.178 20.9189 441.227 20.9189C440.523 20.9189 439.888 21.0557 439.325 21.3295C438.761 21.5902 438.357 21.9487 438.11 22.4049V24.0669C438.357 24.5232 438.761 24.8881 439.325 25.1619C439.888 25.4226 440.523 25.5529 441.227 25.5529Z" fill="white"/>
<path d="M456.108 28.2317C455.087 28.2317 454.022 28.1535 452.912 27.9971C451.803 27.8537 450.921 27.6451 450.271 27.3714V24.849C450.992 25.1619 451.855 25.4226 452.859 25.6312C453.88 25.8267 454.813 25.9244 455.659 25.9244C456.275 25.9244 456.724 25.8918 457.005 25.8267C457.288 25.7615 457.429 25.6312 457.429 25.4356C457.429 25.2792 457.332 25.1553 457.139 25.0641C456.963 24.9599 456.627 24.8555 456.134 24.7513C455.659 24.634 455.105 24.5101 454.47 24.3797C453.396 24.1451 452.552 23.9039 451.935 23.6563C451.318 23.4086 450.861 23.0957 450.561 22.7177C450.262 22.3397 450.112 21.864 450.112 21.2904C450.112 20.2736 450.649 19.5176 451.723 19.0222C452.815 18.5138 454.303 18.2596 456.187 18.2596C457.103 18.2596 458.063 18.3314 459.066 18.4747C460.088 18.6181 460.853 18.8071 461.365 19.0418V21.5251C460.837 21.2643 460.131 21.0492 459.251 20.8798C458.389 20.7103 457.578 20.6256 456.821 20.6256C456.223 20.6256 455.756 20.6712 455.421 20.7624C455.087 20.8407 454.92 20.984 454.92 21.1926C454.92 21.3882 455.087 21.5381 455.421 21.6423C455.756 21.7466 456.355 21.877 457.217 22.0334C457.781 22.1377 458.019 22.1833 457.93 22.1702C459.057 22.3919 459.928 22.6395 460.545 22.9133C461.162 23.187 461.593 23.5129 461.84 23.8909C462.104 24.2559 462.236 24.7252 462.236 25.2988C462.236 26.1982 461.708 26.9151 460.652 27.4496C459.612 27.971 458.097 28.2317 456.108 28.2317Z" fill="white"/>
<path d="M469.176 28.2318C467.434 28.2318 466.122 27.8733 465.242 27.1564C464.379 26.4394 463.947 25.4944 463.947 24.3212V18.553H468.596V23.9301C468.596 25.0121 469.256 25.553 470.577 25.553C471.176 25.553 471.722 25.4488 472.215 25.2402C472.707 25.0316 473.112 24.7253 473.429 24.3212V18.553H478.078V27.9385H473.589V26.9218C473.043 27.3519 472.382 27.6778 471.607 27.8994C470.833 28.121 470.022 28.2318 469.176 28.2318Z" fill="white"/>
<path d="M480.458 18.5529H484.765V19.5697C485.293 19.1526 485.901 18.8332 486.587 18.6116C487.273 18.3769 488.004 18.2596 488.779 18.2596C489.73 18.2596 490.488 18.3639 491.051 18.5725C491.633 18.7811 492.098 19.0939 492.451 19.511C492.979 19.12 493.622 18.8136 494.379 18.5921C495.137 18.3705 495.903 18.2596 496.677 18.2596C498.35 18.2596 499.539 18.5791 500.243 19.2178C500.947 19.8435 501.299 20.7494 501.299 21.9356V27.9384H496.862V22.4245C496.862 21.903 496.73 21.5251 496.465 21.2904C496.202 21.0557 495.761 20.9385 495.146 20.9385C494.353 20.9385 493.709 21.1469 493.217 21.5641C493.234 21.7857 493.243 22.1247 493.243 22.5809V27.9384H488.806V22.2876C488.806 21.8053 488.692 21.4598 488.463 21.2513C488.233 21.0427 487.828 20.9385 487.248 20.9385C486.349 20.9385 485.575 21.3099 484.923 22.053V27.9384H480.458V18.5529Z" fill="white"/>
<path d="M602.5 0C598.626 0 594.79 0.564909 591.211 1.66228C587.632 2.75978 584.38 4.36828 581.64 6.39606C578.901 8.42397 576.728 10.8312 575.246 13.4807C573.763 16.1302 573 18.9699 573 21.8377C573 24.7054 573.763 27.5452 575.246 30.1946C576.728 32.8441 578.901 35.2514 581.64 37.2793C584.38 39.307 587.632 40.9155 591.211 42.013C594.79 43.1104 598.626 43.6753 602.5 43.6753V32.7565C600.563 32.7565 598.645 32.4741 596.855 31.9253C595.066 31.3766 593.44 30.5724 592.07 29.5585C590.701 28.5446 589.614 27.3409 588.873 26.0161C588.131 24.6914 587.75 23.2716 587.75 21.8377C587.75 20.4037 588.131 18.9839 588.873 17.6592C589.614 16.3344 590.701 15.1308 592.07 14.1169C593.44 13.103 595.066 12.2987 596.855 11.75C598.645 11.2012 600.563 10.9188 602.5 10.9188V0Z" fill="#0F52FF"/>
<path d="M602.5 29.1169C607.931 29.1169 612.333 25.8579 612.333 21.8377C612.333 17.8175 607.931 14.5585 602.5 14.5585C597.069 14.5585 592.667 17.8175 592.667 21.8377C592.667 25.8579 597.069 29.1169 602.5 29.1169Z" fill="#0F52FF"/>
<path d="M573 21.8376C573 24.7054 573.763 27.5451 575.246 30.1946C576.728 32.8441 578.901 35.2513 581.64 37.2792C584.38 39.307 587.632 40.9155 591.211 42.013C594.79 43.1104 598.626 43.6753 602.5 43.6753C606.374 43.6753 610.21 43.1104 613.789 42.013C617.368 40.9155 620.62 39.307 623.36 37.2792C626.099 35.2513 628.272 32.8441 629.754 30.1946C631.237 27.5451 632 24.7054 632 21.8376H617.25C617.25 23.2716 616.869 24.6914 616.127 26.0161C615.386 27.3409 614.299 28.5446 612.93 29.5584C611.56 30.5723 609.934 31.3766 608.145 31.9253C606.355 32.4741 604.437 32.7565 602.5 32.7565C600.563 32.7565 598.645 32.4741 596.855 31.9253C595.066 31.3766 593.44 30.5723 592.07 29.5584C590.701 28.5446 589.614 27.3409 588.873 26.0161C588.131 24.6914 587.75 23.2716 587.75 21.8376H573Z" fill="#5BD0F4"/>
<path d="M612.333 21.8378C612.333 19.9072 611.297 18.0557 609.453 16.6906C607.609 15.3254 605.108 14.5585 602.5 14.5585C599.892 14.5585 597.391 15.3254 595.547 16.6906C593.703 18.0557 592.667 19.9072 592.667 21.8378H602.5H612.333Z" fill="#5BD0F4"/>
<path d="M647.407 13.6329H643.743V28.7009H647.407V13.6329Z" fill="#0F52FF"/>
<path d="M649.799 23.3629C649.799 26.8501 653.056 29.0027 657.36 29.0027C661.663 29.0027 664.92 26.8501 664.92 23.3629C664.92 19.8758 661.663 17.7232 657.36 17.7232C653.056 17.7232 649.799 19.8758 649.799 23.3629ZM653.463 23.3629C653.463 21.2965 655.092 20.091 657.36 20.091C659.628 20.091 661.256 21.2965 661.256 23.3629C661.256 25.4294 659.628 26.6348 657.36 26.6348C655.092 26.6348 653.463 25.4294 653.463 23.3629Z" fill="#0F52FF"/>
<path d="M678.013 18.0246V19.4667H677.722C676.85 18.5412 675.454 17.7232 672.954 17.7232C669.522 17.7232 666.44 19.8758 666.44 23.1907C666.44 26.5057 669.522 28.6583 672.954 28.6583C675.454 28.6583 676.85 27.8187 677.664 26.9793H677.955V28.0125C677.955 30.079 676.327 31.0261 673.942 31.0261C671.558 31.0261 670.336 30.079 669.842 28.8519L666.556 29.9068C667.312 31.5211 669.522 33.3078 674 33.3078C678.595 33.3078 681.619 31.5211 681.619 28.077V18.0246H678.013ZM674.059 26.3335C671.79 26.3335 670.104 25.128 670.104 23.1907C670.104 21.2534 671.79 20.048 674.059 20.048C676.327 20.048 678.013 21.2534 678.013 23.1907C678.013 25.128 676.327 26.3335 674.059 26.3335Z" fill="#0F52FF"/>
<path d="M683.989 23.3629C683.989 26.8501 687.246 29.0027 691.55 29.0027C695.853 29.0027 699.11 26.8501 699.11 23.3629C699.11 19.8758 695.853 17.7232 691.55 17.7232C687.246 17.7232 683.989 19.8758 683.989 23.3629ZM687.653 23.3629C687.653 21.2965 689.282 20.091 691.55 20.091C693.818 20.091 695.446 21.2965 695.446 23.3629C695.446 25.4294 693.818 26.6348 691.55 26.6348C689.282 26.6348 687.653 25.4294 687.653 23.3629Z" fill="#0F52FF"/>
<path d="M701.986 14.9244C701.986 16.0223 703.12 16.7757 704.575 16.7757C706.028 16.7757 707.163 16.0223 707.163 14.9244C707.163 13.8267 706.028 13.0732 704.575 13.0732C703.12 13.0732 701.986 13.8267 701.986 14.9244ZM706.406 18.0242H702.743V28.7009H706.406V18.0242Z" fill="#5BD0F4"/>
<path d="M709.671 33.0065H713.336V27.3237H713.626C714.44 28.1847 715.836 29.0027 718.337 29.0027C721.768 29.0027 724.851 26.8501 724.851 23.3629C724.851 19.8758 721.768 17.7232 718.337 17.7232C715.836 17.7232 714.44 18.5412 713.568 19.4669H713.277V18.0246H709.671V33.0065ZM717.231 26.6779C714.964 26.6779 713.277 25.4725 713.277 23.3629C713.277 21.2534 714.964 20.048 717.231 20.048C719.5 20.048 721.186 21.2534 721.186 23.3629C721.186 25.4725 719.5 26.6779 717.231 26.6779Z" fill="#5BD0F4"/>
<path d="M726.989 21.0167C726.989 23.1262 729.372 23.9011 732.396 24.3317L733.153 24.4392C734.955 24.6975 735.769 25.0205 735.769 25.7093C735.769 26.3981 734.955 26.9362 733.27 26.9362C731.582 26.9362 730.217 26.4196 729.837 24.8697L726.464 25.5155C726.96 27.7542 729.489 29.0027 733.27 29.0027C736.933 29.0027 739.318 27.7327 739.318 25.494C739.318 23.2552 736.875 22.6527 733.619 22.1791L732.862 22.0714C731.35 21.8561 730.535 21.5548 730.535 20.8445C730.535 20.1987 731.292 19.7897 732.688 19.7897C734.084 19.7897 735.072 20.2202 735.421 21.3826L738.736 20.6292C738.038 18.9072 735.916 17.7232 732.688 17.7232C729.256 17.7232 726.989 18.9072 726.989 21.0167Z" fill="#5BD0F4"/>
<path d="M755.775 28.7009V18.0241H752.112V23.5347C752.112 25.5151 750.804 26.6774 748.564 26.6774C746.586 26.6774 745.482 25.881 745.482 24.2666V18.0241H741.817V24.3957C741.817 27.0434 744.058 28.8731 747.431 28.8731C750.076 28.8731 751.298 28.012 751.879 27.108H752.169V28.7009H755.775Z" fill="#5BD0F4"/>
<path d="M759.025 18.0243V28.7011H762.69V22.3295C762.69 20.8657 763.621 20.0477 765.306 20.0477C766.761 20.0477 767.633 20.6505 767.633 21.8128V28.7011H771.297V22.3295C771.297 20.8657 772.228 20.0477 773.914 20.0477C775.368 20.0477 776.24 20.6505 776.24 21.8128V28.7011H779.905V21.6837C779.905 19.1006 777.752 17.8521 775.077 17.8521C772.722 17.8521 771.646 18.627 770.948 19.5311H770.657C769.988 18.5195 768.796 17.8521 766.702 17.8521C764.608 17.8521 763.474 18.5409 762.923 19.3589H762.631V18.0243H759.025Z" fill="#5BD0F4"/>
<path d="M893.818 36.1473L854.339 15.9879C850.338 13.9451 851.698 9.69164 856.687 8.69141L898.646 0.261107C899.535 0.0236884 900.488 -0.0533806 901.425 0.0362978C902.362 0.125976 903.257 0.379814 904.035 0.776746C904.813 1.17368 905.452 1.70225 905.898 2.3186C906.345 2.93495 906.587 3.6213 906.604 4.32069L904.117 32.9088C903.822 36.3021 897.819 38.1902 893.818 36.1473Z" fill="#E9327C"/>
<path d="M881.297 41.1237L858.038 7.45303C857.506 6.68274 857.272 5.81872 857.362 4.95625C857.451 4.09379 857.861 3.26638 858.545 2.56528C859.23 1.86419 860.163 1.31663 861.241 0.983008C862.319 0.649383 863.5 0.542649 864.655 0.674573L907.759 5.59917C908.752 5.71256 909.693 5.99871 910.507 6.43407C911.321 6.86944 911.984 7.44159 912.441 8.10349C912.898 8.76539 913.136 9.49813 913.136 10.2415C913.136 10.9848 912.897 11.7175 912.44 12.3793L892.584 41.1254C892.05 41.8934 891.242 42.5378 890.246 42.9877C889.25 43.4376 888.106 43.6755 886.939 43.6753C885.773 43.6751 884.629 43.4369 883.633 42.9867C882.638 42.5366 881.829 41.892 881.297 41.1237Z" fill="#1DACE3"/>
<path d="M906.498 5.45454L885.011 2.99957L858.63 8.30211L869.16 23.5516L893.818 36.1474C894.362 36.4221 894.96 36.6326 895.592 36.7713L904.958 23.2128L906.498 5.45454Z" fill="#3A68B8"/>
<path d="M1015.33 9.39012C1015.33 8.79889 1015.57 8.22094 1016.02 7.72935C1016.46 7.23777 1017.09 6.85462 1017.83 6.62836C1018.57 6.40211 1019.38 6.34292 1020.16 6.45826C1020.94 6.5736 1021.66 6.85831 1022.23 7.27637C1022.79 7.69443 1023.18 8.22707 1023.33 8.80693C1023.49 9.3868 1023.41 9.98785 1023.1 10.5341C1022.8 11.0803 1022.28 11.5472 1021.62 11.8756C1020.95 12.2041 1020.17 12.3794 1019.37 12.3794C1018.31 12.3714 1017.28 12.0538 1016.53 11.495C1015.77 10.9361 1015.35 10.1804 1015.33 9.39012ZM1016.01 13.8407H1022.74V30.4471H1016.01V13.8407Z" fill="white"/>
<path d="M1051.81 22.1441C1051.89 23.2417 1051.67 24.34 1051.18 25.3757C1050.68 26.4114 1049.91 27.3642 1048.91 28.1791C1047.92 28.9941 1046.71 29.6552 1045.37 30.1244C1044.03 30.5936 1042.57 30.8617 1041.09 30.9132C1039.84 30.9635 1038.59 30.8077 1037.44 30.4572C1036.28 30.1067 1035.25 29.5703 1034.4 28.8867V37.0906H1027.67V13.8408H1034.4V15.4014C1035.25 14.7182 1036.28 14.182 1037.44 13.8318C1038.59 13.4816 1039.84 13.3261 1041.09 13.3765C1042.57 13.4278 1044.03 13.6957 1045.37 14.1648C1046.71 14.6338 1047.92 15.2948 1048.91 16.1096C1049.91 16.9244 1050.68 17.877 1051.18 18.9127C1051.67 19.9483 1051.89 21.0465 1051.81 22.1441ZM1045.08 22.1441C1045.05 21.3666 1044.72 20.6121 1044.12 19.9751C1043.51 19.3381 1042.67 18.8468 1041.69 18.5628C1040.71 18.2788 1039.64 18.2146 1038.62 18.3783C1037.59 18.5421 1036.65 18.9264 1035.92 19.4833C1035.18 20.0401 1034.69 20.7447 1034.49 21.5089C1034.3 22.2731 1034.41 23.063 1034.82 23.7796C1035.23 24.4963 1035.91 25.1079 1036.79 25.5379C1037.66 25.9679 1038.69 26.1972 1039.74 26.1971C1040.46 26.2212 1041.18 26.132 1041.86 25.9355C1042.53 25.7389 1043.13 25.4394 1043.64 25.0566C1044.14 24.6739 1044.53 24.2165 1044.78 23.7145C1045.03 23.2126 1045.13 22.6774 1045.08 22.1441Z" fill="white"/>
<path d="M1072.58 25.4625C1072.58 29.2826 1068.1 30.91 1063.25 30.91C1061.29 31.0411 1059.33 30.7344 1057.61 30.0296C1055.89 29.3247 1054.49 28.2541 1053.6 26.9563L1059.44 24.4997C1059.67 25.0996 1060.18 25.6211 1060.88 25.9769C1061.57 26.3327 1062.41 26.5013 1063.25 26.4546C1064.87 26.4546 1065.67 26.088 1065.67 25.425C1065.67 23.5972 1054.63 24.5616 1054.63 18.8143C1054.63 15.1946 1058.76 13.3684 1063.44 13.3684C1065.19 13.3277 1066.93 13.6358 1068.47 14.2607C1070 14.8856 1071.29 15.8044 1072.18 16.9214L1066.44 19.2135C1066.19 18.7775 1065.77 18.406 1065.24 18.1453C1064.7 17.8845 1064.08 17.7461 1063.44 17.7473C1062.27 17.7473 1061.55 18.0731 1061.55 18.6775C1061.55 20.5835 1072.58 19.321 1072.58 25.4625Z" fill="white"/>
<path d="M1097.18 13.8405V30.447H1090.45V28.8831C1089.67 29.572 1088.69 30.1148 1087.57 30.4671C1086.45 30.8193 1085.24 30.971 1084.03 30.9096C1079.5 30.9096 1075.64 28.5182 1075.64 24.0334V13.8405H1082.37V23.3069C1082.32 23.7027 1082.38 24.1029 1082.55 24.4796C1082.72 24.8563 1083.01 25.2004 1083.38 25.4881C1083.75 25.7757 1084.2 26 1084.7 26.1452C1085.2 26.2903 1085.74 26.353 1086.28 26.3288C1088.74 26.3288 1090.46 25.2666 1090.46 22.9078V13.8405H1097.18Z" fill="white"/>
<path d="M1135.75 20.2489V30.4467H1129.02V20.6823C1129.02 19.0223 1127.94 17.9585 1125.79 17.9585C1123.55 17.9585 1122.29 19.1216 1122.29 21.0814V30.4467H1115.56V20.6823C1115.56 19.0223 1114.49 17.9585 1112.33 17.9585C1110.09 17.9585 1108.83 19.1216 1108.83 21.0814V30.4467H1102.1V13.8403H1108.84V15.3618C1109.54 14.6843 1110.46 14.147 1111.51 13.7989C1112.56 13.4509 1113.71 13.3032 1114.85 13.3695C1116.01 13.3278 1117.15 13.5077 1118.18 13.8917C1119.21 14.2756 1120.09 14.8506 1120.73 15.5605C1121.48 14.8178 1122.47 14.2271 1123.6 13.844C1124.74 13.4608 1125.99 13.2975 1127.24 13.3695C1132.39 13.376 1135.75 16.0981 1135.75 20.2489Z" fill="white"/>
<path d="M1141.45 13.7378C1144.21 13.7378 1146.45 12.0822 1146.45 10.0399C1146.45 7.9976 1144.21 6.34198 1141.45 6.34198C1138.7 6.34198 1136.46 7.9976 1136.46 10.0399C1136.46 12.0822 1138.7 13.7378 1141.45 13.7378Z" fill="white"/>
<path d="M923.454 6.20197H930.186V30.447H923.454V6.20197ZM933.997 22.1438C933.99 20.4028 934.681 18.6993 935.982 17.249C937.283 15.7987 939.136 14.6669 941.307 13.9969C943.478 13.3268 945.869 13.1486 948.176 13.4849C950.484 13.8212 952.605 14.6569 954.27 15.886C955.936 17.1152 957.072 18.6825 957.533 20.3897C957.995 22.0969 957.762 23.8671 956.863 25.4761C955.965 27.0851 954.442 28.4606 952.487 29.4285C950.532 30.3963 948.233 30.9129 945.881 30.9129C944.319 30.9253 942.769 30.7071 941.322 30.2712C939.875 29.8352 938.56 29.1902 937.454 28.3738C936.348 27.5574 935.472 26.586 934.879 25.5163C934.285 24.4466 933.986 23.3001 933.997 22.1438ZM951.048 22.1438C951.022 21.3928 950.697 20.6642 950.114 20.0492C949.531 19.4342 948.716 18.9601 947.771 18.6861C946.826 18.4122 945.793 18.3505 944.801 18.509C943.809 18.6674 942.902 19.0389 942.194 19.5768C941.485 20.1148 941.007 20.7955 940.818 21.5337C940.63 22.2719 940.74 23.0348 941.134 23.7271C941.528 24.4194 942.189 25.0102 943.035 25.4257C943.88 25.8413 944.873 26.063 945.887 26.0633C946.582 26.0779 947.274 25.9859 947.918 25.7928C948.563 25.5998 949.146 25.3101 949.632 24.9418C950.118 24.5736 950.495 24.1348 950.74 23.6533C950.985 23.1717 951.093 22.6577 951.057 22.1438H951.048ZM984.605 13.8357V29.613C984.605 35.1924 978.728 37.5497 972.762 37.5497C970.662 37.667 968.558 37.3541 966.683 36.6452C964.807 35.9363 963.231 34.8588 962.128 33.5308L967.87 31.0726C968.333 31.7657 969.071 32.3375 969.986 32.7116C970.9 33.0857 971.947 33.2442 972.986 33.1659C973.649 33.233 974.325 33.1889 974.962 33.037C975.599 32.8851 976.182 32.6291 976.668 32.2881C977.154 31.9471 977.53 31.5297 977.769 31.0667C978.008 30.6037 978.103 30.1069 978.048 29.613V28.0849C977.259 28.7985 976.256 29.3655 975.118 29.7403C973.981 30.1152 972.74 30.2875 971.496 30.2434C968.535 30.1753 965.726 29.2566 963.664 27.682C961.602 26.1074 960.449 24.0005 960.449 21.8074C960.449 19.6143 961.602 17.5074 963.664 15.9328C965.726 14.3582 968.535 13.4395 971.496 13.3714C972.74 13.3273 973.981 13.4996 975.118 13.8745C976.256 14.2493 977.259 14.8163 978.048 15.5299V13.8357H984.605ZM978.056 21.8066C978.101 21.0045 977.82 20.2109 977.25 19.5279C976.68 18.8449 975.848 18.3036 974.859 17.9738C973.87 17.6439 972.771 17.5404 971.702 17.6767C970.634 17.813 969.645 18.1829 968.862 18.7386C968.08 19.2944 967.54 20.0108 967.311 20.7956C967.083 21.5804 967.177 22.3977 967.582 23.1426C967.986 23.8874 968.682 24.5257 969.581 24.9753C970.479 25.425 971.539 25.6654 972.623 25.6658C973.33 25.7026 974.04 25.6294 974.706 25.451C975.373 25.2726 975.982 24.9929 976.493 24.6298C977.005 24.2668 977.409 23.8285 977.678 23.3431C977.947 22.8577 978.076 22.336 978.056 21.8115V21.8066ZM988.417 22.1324C988.41 20.3914 989.1 18.6879 990.401 17.2376C991.703 15.7873 993.556 14.6555 995.727 13.9855C997.898 13.3154 1000.29 13.1372 1002.6 13.4735C1004.9 13.8098 1007.02 14.6454 1008.69 15.8746C1010.36 17.1037 1011.49 18.6711 1011.95 20.3783C1012.41 22.0855 1012.18 23.8557 1011.28 25.4647C1010.38 27.0737 1008.86 28.4492 1006.91 29.4171C1004.95 30.3849 1002.65 30.9015 1000.3 30.9015C998.74 30.9139 997.191 30.6961 995.745 30.2608C994.3 29.8256 992.985 29.1816 991.879 28.3664C990.773 27.5512 989.897 26.5812 989.303 25.5128C988.708 24.4445 988.407 23.2992 988.417 22.1438V22.1324ZM1005.47 22.1324C1005.44 21.3809 1005.12 20.6518 1004.53 20.0363C1003.95 19.4207 1003.14 18.9461 1002.19 18.6719C1001.24 18.3976 1000.21 18.3358 999.218 18.4943C998.226 18.6527 997.318 19.0243 996.609 19.5627C995.901 20.101 995.422 20.7821 995.234 21.5208C995.045 22.2594 995.155 23.0228 995.55 23.7155C995.944 24.4081 996.606 24.9992 997.452 25.4148C998.299 25.8303 999.292 26.052 1000.31 26.0519C1001 26.0655 1001.69 25.9731 1002.33 25.7803C1002.97 25.5876 1003.56 25.2987 1004.04 24.9318C1004.52 24.5649 1004.9 24.1279 1005.15 23.6481C1005.39 23.1684 1005.5 22.6562 1005.47 22.1438V22.1324Z" fill="white"/>
</svg>
