<svg width="207" height="44" viewBox="0 0 207 44" fill="none" xmlns="http://www.w3.org/2000/svg">
<path d="M29.5 0C25.6261 0 21.7899 0.564909 18.2108 1.66228C14.6317 2.75978 11.3797 4.36828 8.6403 6.39606C5.90101 8.42397 3.72813 10.8312 2.24554 13.4807C0.763123 16.1302 0 18.9699 0 21.8377C0 24.7054 0.763123 27.5452 2.24554 30.1946C3.72813 32.8441 5.90101 35.2514 8.6403 37.2793C11.3797 39.307 14.6317 40.9155 18.2108 42.013C21.7899 43.1104 25.6261 43.6753 29.5 43.6753V32.7565C27.5629 32.7565 25.6449 32.4741 23.8554 31.9253C22.0658 31.3766 20.4398 30.5724 19.0702 29.5585C17.7005 28.5446 16.6141 27.3409 15.8729 26.0161C15.1315 24.6914 14.75 23.2716 14.75 21.8377C14.75 20.4037 15.1315 18.9839 15.8729 17.6592C16.6141 16.3344 17.7005 15.1308 19.0702 14.1169C20.4398 13.103 22.0658 12.2987 23.8554 11.75C25.6449 11.2012 27.5629 10.9188 29.5 10.9188V0Z" fill="#0F52FF"/>
<path d="M29.4998 29.1169C34.9306 29.1169 39.3332 25.8579 39.3332 21.8377C39.3332 17.8175 34.9306 14.5585 29.4998 14.5585C24.069 14.5585 19.6665 17.8175 19.6665 21.8377C19.6665 25.8579 24.069 29.1169 29.4998 29.1169Z" fill="#0F52FF"/>
<path d="M0 21.8376C0 24.7054 0.763123 27.5451 2.24554 30.1946C3.72813 32.8441 5.90101 35.2513 8.6403 37.2792C11.3797 39.307 14.6317 40.9155 18.2108 42.013C21.7899 43.1104 25.6261 43.6753 29.5 43.6753C33.3739 43.6753 37.2101 43.1104 40.7892 42.013C44.3683 40.9155 47.6203 39.307 50.3597 37.2792C53.099 35.2513 55.2719 32.8441 56.7545 30.1946C58.2369 27.5451 59 24.7054 59 21.8376H44.25C44.25 23.2716 43.8685 24.6914 43.1271 26.0161C42.3859 27.3409 41.2995 28.5446 39.9298 29.5584C38.5602 30.5723 36.9342 31.3766 35.1446 31.9253C33.3551 32.4741 31.4371 32.7565 29.5 32.7565C27.5629 32.7565 25.6449 32.4741 23.8554 31.9253C22.0658 31.3766 20.4398 30.5723 19.0702 29.5584C17.7005 28.5446 16.6141 27.3409 15.8729 26.0161C15.1315 24.6914 14.75 23.2716 14.75 21.8376H0Z" fill="#5BD0F4"/>
<path d="M39.3332 21.8378C39.3332 19.9072 38.2972 18.0557 36.4532 16.6906C34.609 15.3254 32.1079 14.5585 29.5 14.5585C26.892 14.5585 24.3909 15.3254 22.5467 16.6906C20.7025 18.0557 19.6665 19.9072 19.6665 21.8378H29.5H39.3332Z" fill="#5BD0F4"/>
<path d="M74.4066 13.6329H70.7427V28.7009H74.4066V13.6329Z" fill="#0F52FF"/>
<path d="M76.7993 23.3629C76.7993 26.8501 80.0561 29.0027 84.3597 29.0027C88.6634 29.0027 91.9202 26.8501 91.9202 23.3629C91.9202 19.8758 88.6634 17.7232 84.3597 17.7232C80.0561 17.7232 76.7993 19.8758 76.7993 23.3629ZM80.4632 23.3629C80.4632 21.2965 82.0916 20.091 84.3597 20.091C86.6279 20.091 88.2563 21.2965 88.2563 23.3629C88.2563 25.4294 86.6279 26.6348 84.3597 26.6348C82.0916 26.6348 80.4632 25.4294 80.4632 23.3629Z" fill="#0F52FF"/>
<path d="M105.013 18.0246V19.4667H104.722C103.85 18.5412 102.454 17.7232 99.9536 17.7232C96.5223 17.7232 93.4399 19.8758 93.4399 23.1907C93.4399 26.5057 96.5223 28.6583 99.9536 28.6583C102.454 28.6583 103.85 27.8187 104.664 26.9793H104.955V28.0125C104.955 30.079 103.327 31.0261 100.942 31.0261C98.5578 31.0261 97.3365 30.079 96.8421 28.8519L93.5563 29.9068C94.3123 31.5211 96.5223 33.3078 101 33.3078C105.595 33.3078 108.619 31.5211 108.619 28.077V18.0246H105.013ZM101.059 26.3335C98.7904 26.3335 97.1038 25.128 97.1038 23.1907C97.1038 21.2534 98.7904 20.048 101.059 20.048C103.327 20.048 105.013 21.2534 105.013 23.1907C105.013 25.128 103.327 26.3335 101.059 26.3335Z" fill="#0F52FF"/>
<path d="M110.989 23.3629C110.989 26.8501 114.246 29.0027 118.55 29.0027C122.853 29.0027 126.11 26.8501 126.11 23.3629C126.11 19.8758 122.853 17.7232 118.55 17.7232C114.246 17.7232 110.989 19.8758 110.989 23.3629ZM114.653 23.3629C114.653 21.2965 116.282 20.091 118.55 20.091C120.818 20.091 122.446 21.2965 122.446 23.3629C122.446 25.4294 120.818 26.6348 118.55 26.6348C116.282 26.6348 114.653 25.4294 114.653 23.3629Z" fill="#0F52FF"/>
<path d="M128.986 14.9244C128.986 16.0223 130.12 16.7757 131.575 16.7757C133.028 16.7757 134.163 16.0223 134.163 14.9244C134.163 13.8267 133.028 13.0732 131.575 13.0732C130.12 13.0732 128.986 13.8267 128.986 14.9244ZM133.406 18.0242H129.743V28.7009H133.406V18.0242Z" fill="#5BD0F4"/>
<path d="M136.671 33.0065H140.336V27.3237H140.626C141.44 28.1847 142.836 29.0027 145.337 29.0027C148.768 29.0027 151.851 26.8501 151.851 23.3629C151.851 19.8758 148.768 17.7232 145.337 17.7232C142.836 17.7232 141.44 18.5412 140.568 19.4669H140.277V18.0246H136.671V33.0065ZM144.231 26.6779C141.964 26.6779 140.277 25.4725 140.277 23.3629C140.277 21.2534 141.964 20.048 144.231 20.048C146.5 20.048 148.186 21.2534 148.186 23.3629C148.186 25.4725 146.5 26.6779 144.231 26.6779Z" fill="#5BD0F4"/>
<path d="M153.989 21.0167C153.989 23.1262 156.372 23.9011 159.396 24.3317L160.153 24.4392C161.955 24.6975 162.769 25.0205 162.769 25.7093C162.769 26.3981 161.955 26.9362 160.27 26.9362C158.582 26.9362 157.217 26.4196 156.837 24.8697L153.464 25.5155C153.96 27.7542 156.489 29.0027 160.27 29.0027C163.933 29.0027 166.318 27.7327 166.318 25.494C166.318 23.2552 163.875 22.6527 160.619 22.1791L159.862 22.0714C158.35 21.8561 157.535 21.5548 157.535 20.8445C157.535 20.1987 158.292 19.7897 159.688 19.7897C161.084 19.7897 162.072 20.2202 162.421 21.3826L165.736 20.6292C165.038 18.9072 162.916 17.7232 159.688 17.7232C156.256 17.7232 153.989 18.9072 153.989 21.0167Z" fill="#5BD0F4"/>
<path d="M182.775 28.7009V18.0241H179.112V23.5347C179.112 25.5151 177.804 26.6774 175.564 26.6774C173.586 26.6774 172.482 25.881 172.482 24.2666V18.0241H168.817V24.3957C168.817 27.0434 171.058 28.8731 174.431 28.8731C177.076 28.8731 178.298 28.012 178.879 27.108H179.169V28.7009H182.775Z" fill="#5BD0F4"/>
<path d="M186.025 18.0243V28.7011H189.69V22.3295C189.69 20.8657 190.621 20.0477 192.306 20.0477C193.761 20.0477 194.633 20.6505 194.633 21.8128V28.7011H198.297V22.3295C198.297 20.8657 199.228 20.0477 200.914 20.0477C202.368 20.0477 203.24 20.6505 203.24 21.8128V28.7011H206.905V21.6837C206.905 19.1006 204.752 17.8521 202.077 17.8521C199.722 17.8521 198.646 18.627 197.948 19.5311H197.657C196.988 18.5195 195.796 17.8521 193.702 17.8521C191.608 17.8521 190.474 18.5409 189.923 19.3589H189.631V18.0243H186.025Z" fill="#5BD0F4"/>
</svg>
