<svg width="218" height="44" viewBox="0 0 218 44" fill="none" xmlns="http://www.w3.org/2000/svg">
<path d="M17.9568 41.6784L11.9976 34.0376L20.743 22.8551L26.3005 29.9812L59.107 29.9681L49.798 41.7838L17.9568 41.6784Z" fill="#FFAD64"/>
<path d="M64.9646 22.3815L59.0054 30.0221L41.5505 30.0069L47.1085 22.881L30.6899 1.85583L49.1675 1.91585L64.9646 22.3815Z" fill="#ADD4D3"/>
<path d="M18.8747 1.81458H30.7931L39.5028 13.0125L28.3871 13.0122L11.9992 34.0504L2.83057 22.1748L18.8747 1.81458Z" fill="#FB8351"/>
<path fill-rule="evenodd" clip-rule="evenodd" d="M32.2463 0.0456419L32.2108 0H17.4668L0 22.1657L11.99 37.6957L12.0047 37.6769L16.5374 43.4886L51.2023 43.6035L63.3759 28.1517H63.2949L67.792 22.3858L50.5939 0.105231L32.2463 0.0456419ZM43.6518 14.8275H43.7437L35.0767 3.68456L47.7413 3.72566L62.1375 22.3764L57.6314 28.154L45.8226 28.1587L49.9399 22.88L43.6518 14.8275ZM29.2438 3.62962L35.1536 11.1977L26.9712 11.1975L12.9627 29.181L12.0072 30.4029L5.6619 22.1842L20.2831 3.62962H29.2438ZM23.5619 22.8402L29.8037 14.8272L37.9881 14.8274L44.2772 22.8811L40.159 28.161L27.7154 28.166L23.5619 22.8402ZM14.8338 34.045L17.2085 30.9965L20.7398 26.4812L24.8853 31.7968L37.327 31.7918L37.3069 31.8176L54.7996 31.8329L48.3932 39.9644L19.3756 39.8683L14.8338 34.045Z" fill="#333237"/>
<path d="M82.0712 37.2894V28.7931H77.8291V27.8392H87.9389V28.7931H83.6967V37.2894H82.0712Z" fill="white"/>
<path d="M92.4556 37.4365C90.7772 37.4365 89.5218 37.1382 88.6893 36.5414C87.8566 35.9447 87.4404 35.0251 87.4404 33.7826C87.4404 32.6674 87.7972 31.7919 88.5109 31.156C89.2376 30.5103 90.3809 30.1874 91.9403 30.1874C92.8653 30.1874 93.6251 30.3146 94.2199 30.5691C94.8277 30.8135 95.2772 31.156 95.5679 31.5962C95.8718 32.0267 96.0238 32.5158 96.0238 33.0636V34.3696H89.0659C89.1187 34.8979 89.2707 35.3136 89.5218 35.617C89.7861 35.9202 90.1759 36.1403 90.6914 36.2773C91.2199 36.4044 91.9139 36.468 92.7728 36.468C93.7375 36.468 94.6229 36.3458 95.429 36.1012V37.0403C95.0194 37.1675 94.5568 37.2654 94.0415 37.3338C93.5392 37.4023 93.0107 37.4365 92.4556 37.4365ZM89.0659 33.5039H94.5767V32.9316C94.5767 32.3641 94.3719 31.9288 93.9621 31.6256C93.5658 31.3125 92.9049 31.156 91.9798 31.156C90.8566 31.156 90.0901 31.3516 89.6804 31.743C89.2707 32.1342 89.0659 32.7212 89.0659 33.5039Z" fill="white"/>
<path d="M102.847 37.4365C101.208 37.4365 99.9921 37.1235 99.1992 36.4974C98.4063 35.8616 98.0098 34.9664 98.0098 33.812C98.0098 32.5892 98.4591 31.6794 99.3578 31.0826C100.256 30.4859 101.466 30.1874 102.985 30.1874C103.607 30.1874 104.122 30.2217 104.532 30.2902C104.941 30.3489 105.338 30.4467 105.721 30.5836V31.5375C105.007 31.2832 104.195 31.156 103.283 31.156C102.12 31.156 101.221 31.3615 100.587 31.7723C99.9524 32.1734 99.6353 32.8533 99.6353 33.812C99.6353 34.7316 99.9129 35.4066 100.468 35.8371C101.023 36.2578 101.941 36.468 103.223 36.468C104.135 36.468 104.974 36.3409 105.741 36.0865V37.055C105.331 37.1822 104.888 37.2751 104.413 37.3338C103.95 37.4023 103.428 37.4365 102.847 37.4365Z" fill="white"/>
<path d="M107.563 37.2894V27.3989H109.188V31.0822C109.625 30.8181 110.133 30.6029 110.715 30.4366C111.31 30.2702 111.997 30.187 112.776 30.187C113.913 30.187 114.765 30.3925 115.334 30.8034C115.902 31.2143 116.186 31.8599 116.186 32.7403V37.2894H114.561V32.7844C114.561 32.1779 114.376 31.7572 114.006 31.5224C113.649 31.2779 113.054 31.1555 112.221 31.1555C111.693 31.1555 111.144 31.2436 110.576 31.4197C110.021 31.586 109.559 31.8062 109.188 32.08V37.2894H107.563Z" fill="white"/>
<path d="M122.669 37.4364C121.347 37.4364 120.29 37.2212 119.497 36.7907C118.704 36.3603 118.308 35.7831 118.308 35.0591C118.308 34.3939 118.585 33.8216 119.14 33.3423C119.695 32.8629 120.455 32.4373 121.42 32.0656C120.904 31.6841 120.468 31.327 120.112 30.9944C119.755 30.6618 119.576 30.2607 119.576 29.7911C119.576 29.2041 119.847 28.7101 120.389 28.309C120.944 27.8981 121.724 27.6927 122.728 27.6927C123.706 27.6927 124.466 27.8835 125.008 28.265C125.549 28.6465 125.821 29.1552 125.821 29.7911C125.821 30.3194 125.629 30.7645 125.245 31.1265C124.862 31.4885 124.314 31.8553 123.6 32.2271L126.891 34.707C127.115 34.345 127.228 33.8852 127.228 33.3276V33.1222H128.517V33.3276C128.517 33.7092 128.457 34.0809 128.338 34.4429C128.22 34.8048 128.047 35.1179 127.823 35.382L129.607 36.7174L128.615 37.3777L127.029 36.2185C126.567 36.6391 125.966 36.9473 125.226 37.1429C124.486 37.3386 123.633 37.4364 122.669 37.4364ZM122.589 31.6401C123.211 31.3564 123.68 31.0874 123.997 30.833C124.314 30.5689 124.473 30.2363 124.473 29.8352C124.473 29.4634 124.334 29.1699 124.056 28.9547C123.792 28.7297 123.349 28.6172 122.728 28.6172C122.094 28.6172 121.631 28.7346 121.341 28.9694C121.063 29.2041 120.924 29.4928 120.924 29.8352C120.924 30.1482 121.07 30.4368 121.36 30.7009C121.664 30.9651 122.074 31.2781 122.589 31.6401ZM122.669 36.5706C123.435 36.5706 124.089 36.4875 124.631 36.3212C125.186 36.145 125.655 35.8859 126.039 35.5434L122.411 32.7993C121.552 33.0928 120.911 33.4107 120.488 33.7531C120.079 34.0857 119.874 34.5113 119.874 35.0299C119.874 35.5385 120.138 35.925 120.667 36.1891C121.195 36.4434 121.863 36.5706 122.669 36.5706Z" fill="#FB8351"/>
<path d="M78.4697 20.9797V7.89484H83.6298V18.0539H91.5896V20.9797H78.4697Z" fill="#FB8351"/>
<path d="M99.8904 21.183C97.2921 21.183 95.3707 20.7563 94.1265 19.9029C92.9006 19.0495 92.2876 17.8034 92.2876 16.1644C92.2876 14.539 92.9097 13.2996 94.154 12.4462C95.3983 11.5793 97.3104 11.1458 99.8904 11.1458C102.489 11.1458 104.41 11.5793 105.654 12.4462C106.917 13.2996 107.548 14.539 107.548 16.1644C107.548 17.8034 106.926 19.0495 105.682 19.9029C104.438 20.7563 102.507 21.183 99.8904 21.183ZM99.8904 18.3994C100.732 18.3994 101.336 18.2233 101.702 17.8711C102.086 17.5189 102.278 16.95 102.278 16.1644C102.278 15.3923 102.086 14.8302 101.702 14.478C101.336 14.1122 100.732 13.9294 99.8904 13.9294C99.067 13.9294 98.4723 14.1122 98.1064 14.478C97.7404 14.8302 97.5574 15.3923 97.5574 16.1644C97.5574 16.95 97.7404 17.5189 98.1064 17.8711C98.4723 18.2233 99.067 18.3994 99.8904 18.3994Z" fill="#FB8351"/>
<path d="M115.191 24.5558C114.55 24.5558 113.855 24.5355 113.105 24.4948C112.354 24.4678 111.641 24.4136 110.964 24.3323C110.305 24.2511 109.756 24.1562 109.317 24.0478V21.6096C109.811 21.7316 110.378 21.8332 111.019 21.9144C111.677 21.9957 112.345 22.0567 113.022 22.0973C113.699 22.1379 114.321 22.1583 114.889 22.1583C115.858 22.1583 116.618 22.1176 117.167 22.0364C117.734 21.9687 118.018 21.84 118.018 21.6503C118.018 21.4878 117.926 21.3794 117.743 21.3252C117.56 21.2845 117.213 21.2643 116.7 21.2643H113.269C111.934 21.2643 110.9 21.1085 110.168 20.797C109.454 20.4719 109.097 19.991 109.097 19.3544C109.097 18.4603 109.765 17.8373 111.101 17.4851C110.351 17.2006 109.802 16.8417 109.454 16.4082C109.106 15.9748 108.933 15.4262 108.933 14.7624C108.933 13.5163 109.5 12.6019 110.634 12.0195C111.787 11.4371 113.443 11.1458 115.602 11.1458C116.06 11.1458 116.572 11.1729 117.139 11.2271C117.707 11.2677 118.118 11.3084 118.374 11.349H123.48L123.37 13.6652H121.641C121.97 13.9768 122.135 14.3561 122.135 14.8031C122.135 15.7919 121.741 16.5776 120.954 17.16C120.186 17.7289 118.969 18.0134 117.304 18.0134C117.066 18.0134 116.81 18.0066 116.535 17.993C116.261 17.966 116.005 17.9457 115.767 17.932C115.364 17.9592 115.017 18.0134 114.724 18.0947C114.431 18.1759 114.285 18.3113 114.285 18.501C114.285 18.6364 114.367 18.7313 114.532 18.7854C114.697 18.8261 114.925 18.8464 115.218 18.8464H118.21C119.546 18.8464 120.598 19.0767 121.366 19.5372C122.135 19.9978 122.519 20.675 122.519 21.5691C122.519 22.5172 121.924 23.2486 120.735 23.7634C119.546 24.2917 117.698 24.5558 115.191 24.5558ZM115.63 15.9206C116.435 15.9206 116.993 15.819 117.304 15.6158C117.615 15.4126 117.771 15.074 117.771 14.5999C117.771 14.1258 117.615 13.7804 117.304 13.5637C116.993 13.347 116.435 13.2386 115.63 13.2386C114.88 13.2386 114.331 13.347 113.983 13.5637C113.654 13.7669 113.489 14.1122 113.489 14.5999C113.489 15.0605 113.644 15.3991 113.955 15.6158C114.285 15.819 114.843 15.9206 115.63 15.9206Z" fill="#FB8351"/>
<path d="M131.895 21.183C129.296 21.183 127.375 20.7563 126.131 19.9029C124.905 19.0495 124.292 17.8034 124.292 16.1644C124.292 14.539 124.914 13.2996 126.158 12.4462C127.402 11.5793 129.315 11.1458 131.895 11.1458C134.493 11.1458 136.414 11.5793 137.658 12.4462C138.922 13.2996 139.552 14.539 139.552 16.1644C139.552 17.8034 138.93 19.0495 137.686 19.9029C136.441 20.7563 134.511 21.183 131.895 21.183ZM131.895 18.3994C132.736 18.3994 133.34 18.2233 133.706 17.8711C134.09 17.5189 134.283 16.95 134.283 16.1644C134.283 15.3923 134.09 14.8302 133.706 14.478C133.34 14.1122 132.736 13.9294 131.895 13.9294C131.072 13.9294 130.476 14.1122 130.11 14.478C129.744 14.8302 129.562 15.3923 129.562 16.1644C129.562 16.95 129.744 17.5189 130.11 17.8711C130.476 18.2233 131.072 18.3994 131.895 18.3994Z" fill="#FB8351"/>
<path d="M141.82 10.0686V7.3053H147.392V10.0686H141.82ZM142.231 20.9794V14.1322H140.339L140.777 11.3487H147.392V20.9794H142.231Z" fill="white"/>
<path d="M149.867 25.3685V11.349H154.342L154.589 12.121C155.118 11.8095 155.695 11.5724 156.317 11.4099C156.958 11.2338 157.699 11.1458 158.541 11.1458C160.48 11.1458 161.972 11.5115 163.015 12.2429C164.075 12.9608 164.606 14.1867 164.606 15.9205C164.606 17.6409 164.048 18.9479 162.932 19.842C161.816 20.736 160.279 21.1829 158.321 21.1829C157.022 21.1829 155.924 21.0001 155.027 20.6344V25.3685H149.867ZM157.003 18.3994C157.754 18.3994 158.331 18.2029 158.733 17.8101C159.136 17.4173 159.337 16.8078 159.337 15.9815C159.337 15.1823 159.144 14.6405 158.76 14.3561C158.394 14.0716 157.827 13.9294 157.058 13.9294C156.29 13.9294 155.613 14.119 155.027 14.4983V17.9118C155.321 18.0743 155.613 18.1962 155.906 18.2774C156.198 18.3587 156.564 18.3994 157.003 18.3994Z" fill="white"/>
<path d="M171.483 21.1829C170.367 21.1829 169.315 21.122 168.327 21.0001C167.356 20.8917 166.589 20.7495 166.021 20.5734V17.8304C166.661 18.0472 167.421 18.2165 168.298 18.3384C169.196 18.4603 169.956 18.5213 170.576 18.5213C171.236 18.5213 171.73 18.5078 172.059 18.4806C172.408 18.4536 172.58 18.3384 172.58 18.1352C172.58 17.905 172.279 17.7289 171.675 17.607C171.072 17.485 170.312 17.3089 169.397 17.0787C168.207 16.7671 167.319 16.4014 166.734 15.9815C166.149 15.5616 165.856 14.9521 165.856 14.1528C165.856 13.1912 166.369 12.453 167.394 11.9382C168.418 11.4099 170.028 11.1458 172.223 11.1458C173.065 11.1458 173.935 11.1931 174.831 11.288C175.727 11.3828 176.432 11.4912 176.945 11.6131V14.2951C176.395 14.119 175.792 13.9903 175.134 13.9091C174.493 13.8277 173.908 13.7872 173.377 13.7872C172.791 13.7872 172.269 13.8074 171.812 13.8481C171.354 13.8887 171.126 14.0038 171.126 14.1935C171.126 14.4102 171.383 14.566 171.895 14.6608C172.425 14.7557 173.13 14.9047 174.007 15.1078C174.997 15.3245 175.764 15.5616 176.314 15.819C176.881 16.0763 177.274 16.3878 177.494 16.7536C177.731 17.1194 177.851 17.573 177.851 18.1149C177.851 19.0902 177.31 19.8487 176.231 20.3905C175.169 20.9188 173.586 21.1829 171.483 21.1829Z" fill="white"/>
<path d="M184.501 21.1826C182.982 21.1826 181.793 20.8643 180.933 20.2277C180.074 19.591 179.644 18.6564 179.644 17.4237V11.3486H184.804V17.119C184.804 17.9587 185.38 18.3787 186.532 18.3787C186.953 18.3787 187.365 18.311 187.768 18.1755C188.17 18.0401 188.49 17.8707 188.728 17.6676V11.3486H193.888V20.9794H189.058L188.921 20.2479C188.409 20.5188 187.777 20.7424 187.027 20.9184C186.295 21.0945 185.453 21.1826 184.501 21.1826Z" fill="white"/>
<path d="M196.346 20.9797V11.349H201.121L201.258 12.121C201.826 11.8366 202.457 11.6064 203.152 11.4302C203.866 11.2406 204.644 11.1458 205.486 11.1458C206.326 11.1458 206.986 11.2338 207.461 11.4099C207.938 11.586 208.322 11.8433 208.614 12.182C209.2 11.8705 209.859 11.6199 210.591 11.4302C211.34 11.2406 212.22 11.1458 213.226 11.1458C214.744 11.1458 215.861 11.4438 216.574 12.0397C217.288 12.6222 217.645 13.5163 217.645 14.7218V20.9797H212.566V15.1688C212.566 14.7353 212.448 14.4306 212.21 14.2545C211.973 14.0648 211.579 13.97 211.029 13.97C210.316 13.97 209.73 14.1597 209.274 14.5389C209.309 14.715 209.328 14.8844 209.328 15.0469C209.328 15.1958 209.328 15.3652 209.328 15.5548V20.9797H204.552V15.1078C204.552 14.715 204.461 14.4306 204.278 14.2545C204.094 14.0648 203.747 13.97 203.235 13.97C202.887 13.97 202.549 14.0378 202.219 14.1732C201.889 14.3087 201.597 14.4712 201.341 14.6608V20.9797H196.346Z" fill="white"/>
<path d="M138.011 37.5578C136.636 37.5578 135.493 37.367 134.581 36.9854C133.683 36.5941 133.009 36.0512 132.56 35.3566C132.11 34.6523 131.886 33.8305 131.886 32.8914C131.886 31.8642 132.097 30.969 132.52 30.206C132.942 29.4429 133.603 28.8559 134.502 28.445C135.402 28.0244 136.563 27.8141 137.991 27.8141C138.731 27.8141 139.398 27.8532 139.993 27.9315C140.601 28.0098 141.169 28.1173 141.699 28.2543V29.3109C141.169 29.1641 140.608 29.0516 140.013 28.9733C139.418 28.8853 138.791 28.8412 138.13 28.8412C136.98 28.8412 136.068 29.0027 135.394 29.3256C134.721 29.6483 134.238 30.113 133.947 30.7196C133.656 31.3261 133.51 32.0501 133.51 32.8914C133.51 34.0555 133.882 34.9555 134.621 35.5915C135.374 36.2176 136.558 36.5306 138.169 36.5306C138.764 36.5306 139.365 36.4963 139.973 36.4278C140.594 36.3593 141.169 36.2518 141.699 36.105V37.1763C141.182 37.2936 140.621 37.3865 140.013 37.4551C139.418 37.5235 138.751 37.5578 138.011 37.5578Z" fill="white"/>
<path d="M148.373 37.5574C146.734 37.5574 145.538 37.2492 144.785 36.6329C144.045 36.0068 143.676 35.1068 143.676 33.9328C143.676 32.7686 144.053 31.8735 144.805 31.2474C145.558 30.6213 146.749 30.3083 148.373 30.3083C149.999 30.3083 151.189 30.6213 151.941 31.2474C152.695 31.8735 153.071 32.7686 153.071 33.9328C153.071 35.1068 152.702 36.0068 151.961 36.6329C151.222 37.2492 150.026 37.5574 148.373 37.5574ZM148.373 36.5302C149.496 36.5302 150.29 36.3247 150.752 35.9138C151.215 35.4932 151.446 34.8329 151.446 33.9328C151.446 33.0328 151.209 32.3774 150.732 31.9665C150.27 31.5458 149.483 31.3355 148.373 31.3355C147.264 31.3355 146.47 31.5458 145.995 31.9665C145.533 32.3774 145.301 33.0328 145.301 33.9328C145.301 34.8329 145.533 35.4932 145.995 35.9138C146.457 36.3247 147.25 36.5302 148.373 36.5302Z" fill="white"/>
<path d="M155.058 37.4109V36.3984H156.525V37.4109H155.058Z" fill="white"/>
</svg>
