<svg width="45" height="43" viewBox="0 0 45 43" fill="none" xmlns="http://www.w3.org/2000/svg">
<path d="M22.02 4.25072C21.7295 4.25072 21.449 4.21792 21.1851 4.1571V7.10332H22.855V4.1571C22.591 4.21801 22.3106 4.25072 22.02 4.25072Z" fill="#135693"/>
<path d="M22.0201 4.33321C23.6365 4.33321 24.9469 3.36319 24.9469 2.1666C24.9469 0.970022 23.6365 0 22.0201 0C20.4036 0 19.0933 0.970022 19.0933 2.1666C19.0933 3.36319 20.4036 4.33321 22.0201 4.33321Z" fill="#6BC1DD"/>
<g opacity="0.15">
<path opacity="0.15" d="M21.5568 2.1666C21.5568 1.29592 22.251 0.545565 23.2519 0.201167C22.8773 0.0723575 22.4603 0 22.0201 0C20.4036 0 19.0933 0.970068 19.0933 2.1666C19.0933 3.36314 20.4036 4.33312 22.0201 4.33312C22.4603 4.33312 22.8773 4.26077 23.2519 4.13196C22.251 3.78764 21.5568 3.03728 21.5568 2.1666Z" fill="#440075"/>
</g>
<path d="M40.6761 10.4847H38.9502V22.2711H40.6761C41.6223 22.2711 42.3965 21.6981 42.3965 20.9977V11.7582C42.3965 11.0578 41.6223 10.4847 40.6761 10.4847Z" fill="#9EA7AF"/>
<path d="M5.09032 10.4852H3.25052C2.30434 10.4852 1.53027 11.0583 1.53027 11.7587V20.9981C1.53027 21.6985 2.30434 22.2715 3.25052 22.2715H5.09021L5.09032 10.4852Z" fill="#9EA7AF"/>
<path d="M6.2634 37.6915H3.89924C3.09211 37.6915 2.34232 37.5099 1.72021 37.199V41.3459C1.72021 41.8129 2.23633 42.1949 2.86712 42.1949H6.2634V37.6915Z" fill="#C5CCD3"/>
<path d="M40.1409 37.6913H37.7769V42.1949H41.1731C41.8039 42.1949 42.32 41.8128 42.32 41.3458V37.199C41.6978 37.5097 40.948 37.6913 40.1409 37.6913Z" fill="#C5CCD3"/>
<path opacity="0.15" d="M4.12869 41.3459V37.6913H3.89924C3.09211 37.6913 2.34232 37.5098 1.72021 37.1989V41.3458C1.72021 41.8128 2.23633 42.1948 2.86712 42.1948H5.27559C4.6448 42.1949 4.12869 41.8128 4.12869 41.3459Z" fill="#440075"/>
<path d="M6.26354 31.2013H3.89938C1.74585 31.2013 0 32.4937 0 34.0878V34.9369C0 36.531 1.74596 37.8233 3.89938 37.8233H6.26343L6.26354 31.2013Z" fill="#E6E9ED"/>
<path d="M40.1409 31.2002H37.7769V37.8223H40.1409C42.2946 37.8223 44.0403 36.5299 44.0403 34.9358V34.0868C44.0403 32.4925 42.2944 31.2002 40.1409 31.2002Z" fill="#E6E9ED"/>
<g opacity="0.15">
<path opacity="0.15" d="M2.75259 34.9359V34.0869C2.75259 32.4926 4.49843 31.2003 6.65196 31.2003H3.89938C1.74585 31.2003 0 32.4927 0 34.0869V34.9359C0 36.53 1.74596 37.8223 3.89938 37.8223H6.65196C4.49832 37.8223 2.75259 36.53 2.75259 34.9359Z" fill="#440075"/>
</g>
<path d="M25.8276 25.5518H18.2139V27.6579H25.8276V25.5518Z" fill="#9EA7AF"/>
<path opacity="0.15" d="M20.9883 25.5518H18.2139V27.6579H20.9883V25.5518Z" fill="#440075"/>
<path d="M30.9765 29.6682V28.2981C30.9765 27.8954 30.5314 27.5659 29.9874 27.5659H13.7196C13.1756 27.5659 12.7305 27.8954 12.7305 28.2981V29.6682H30.9765Z" fill="#C5CCD3"/>
<path opacity="0.15" d="M16.1606 29.6682V28.2981C16.1606 27.8954 16.6057 27.5659 17.1499 27.5659H13.7196C13.1756 27.5659 12.7305 27.8954 12.7305 28.2981V29.6682H16.1606Z" fill="#440075"/>
<path d="M36.1678 29.5237H7.8727C6.92652 29.5237 6.15234 30.0968 6.15234 30.7972V42.1949H37.8882V30.7972C37.8882 30.0968 37.1141 29.5237 36.1678 29.5237Z" fill="#9EA7AF"/>
<g opacity="0.15">
<path opacity="0.15" d="M11.1577 29.5237H7.8727C6.92652 29.5237 6.15234 30.0968 6.15234 30.7972V42.1949H9.4373V30.7972C9.4373 30.0968 10.2115 29.5237 11.1577 29.5237Z" fill="#440075"/>
</g>
<path d="M39.0612 24.3762C39.0612 25.0766 38.287 25.6496 37.341 25.6496H6.69925C5.75318 25.6496 4.979 25.0766 4.979 24.3762V8.2943C4.979 7.59388 5.75318 7.02087 6.69925 7.02087H37.341C38.287 7.02087 39.0612 7.59388 39.0612 8.2943V24.3762Z" fill="#C5CCD3"/>
<g opacity="0.15">
<path opacity="0.15" d="M8.25751 24.3762V8.2943C8.25751 7.59388 9.03168 7.02087 9.97786 7.02087H6.69924C5.75318 7.02087 4.979 7.59388 4.979 8.2943V24.3763C4.979 25.0767 5.75318 25.6497 6.69924 25.6497H9.97786C9.03168 25.6496 8.25751 25.0766 8.25751 24.3762Z" fill="#440075"/>
</g>
<path d="M34.9901 16.3593C34.9901 18.7887 32.3297 20.7578 29.0481 20.7578H14.9919C11.7101 20.7578 9.0498 18.7886 9.0498 16.3593C9.0498 13.93 11.7101 11.9608 14.9919 11.9608H29.0481C32.3297 11.9608 34.9901 13.93 34.9901 16.3593Z" fill="#135693"/>
<g opacity="0.15">
<path opacity="0.15" d="M12.3862 16.3593C12.3862 13.93 15.0465 11.9608 18.3283 11.9608H14.9919C11.7101 11.9608 9.0498 13.93 9.0498 16.3593C9.0498 18.7887 11.7101 20.7578 14.9919 20.7578H18.3283C15.0465 20.7578 12.3862 18.7886 12.3862 16.3593Z" fill="#440075"/>
</g>
<path d="M14.3984 18.0772C15.6744 18.0772 16.7089 17.3084 16.7089 16.3601C16.7089 15.4117 15.6744 14.6429 14.3984 14.6429C13.1223 14.6429 12.0879 15.4117 12.0879 16.3601C12.0879 17.3084 13.1223 18.0772 14.3984 18.0772Z" fill="#6BC1DD"/>
<path d="M29.686 18.0768C30.962 18.0768 31.9965 17.3081 31.9965 16.3597C31.9965 15.4114 30.962 14.6426 29.686 14.6426C28.4099 14.6426 27.3755 15.4114 27.3755 16.3597C27.3755 17.3081 28.4099 18.0768 29.686 18.0768Z" fill="#6BC1DD"/>
<path d="M32.2704 42.1949V34.7935C32.2704 34.3265 31.7543 33.9445 31.1235 33.9445H12.9169C12.2861 33.9445 11.77 34.3265 11.77 34.7935V42.1949H32.2704Z" fill="#135693"/>
<path d="M24.0843 42.1947V39.8076C24.0843 39.6675 23.9294 39.5529 23.7403 39.5529H20.2996C20.1104 39.5529 19.9556 39.6675 19.9556 39.8076V42.1947H24.0843Z" fill="#FFC502"/>
<path d="M17.2032 36.6017H14.5654C14.1042 36.6017 13.7305 36.325 13.7305 35.9836C13.7305 35.6421 14.1042 35.3655 14.5654 35.3655H17.2032C17.6645 35.3655 18.0382 35.6421 18.0382 35.9836C18.0382 36.3249 17.6645 36.6017 17.2032 36.6017Z" fill="#C5CCD3"/>
<path d="M16.0564 38.1104H14.5654C14.1042 38.1104 13.7305 37.8338 13.7305 37.4924C13.7305 37.1509 14.1042 36.8743 14.5654 36.8743H16.0564C16.5177 36.8743 16.8914 37.1509 16.8914 37.4924C16.8914 37.8338 16.5176 38.1104 16.0564 38.1104Z" fill="#C5CCD3"/>
<path d="M17.2032 39.6197H14.5654C14.1042 39.6197 13.7305 39.343 13.7305 39.0016C13.7305 38.6602 14.1042 38.3835 14.5654 38.3835H17.2032C17.6645 38.3835 18.0382 38.6602 18.0382 39.0016C18.0382 39.3431 17.6645 39.6197 17.2032 39.6197Z" fill="#C5CCD3"/>
<path d="M15.7123 41.1285H14.5654C14.1042 41.1285 13.7305 40.8519 13.7305 40.5104C13.7305 40.1691 14.1042 39.8923 14.5654 39.8923H15.7123C16.1736 39.8923 16.5473 40.1691 16.5473 40.5104C16.5473 40.8519 16.1735 41.1285 15.7123 41.1285Z" fill="#C5CCD3"/>
<path d="M29.0965 40.5076H27.0605C26.5775 40.5076 26.186 40.2177 26.186 39.8601C26.186 39.5024 26.5776 39.2126 27.0605 39.2126H29.0965C29.5795 39.2126 29.9712 39.5025 29.9712 39.8601C29.9712 40.2178 29.5795 40.5076 29.0965 40.5076Z" fill="#E6E9ED"/>
<path d="M28.0786 38.2638C29.0931 38.2638 29.9155 37.655 29.9155 36.904C29.9155 36.153 29.0931 35.5442 28.0786 35.5442C27.0641 35.5442 26.2417 36.153 26.2417 36.904C26.2417 37.655 27.0641 38.2638 28.0786 38.2638Z" fill="#5DC647"/>
<path d="M24.1353 37.615C24.1353 37.7586 23.9766 37.8759 23.7828 37.8759H20.2572C20.0634 37.8759 19.9048 37.7586 19.9048 37.615V36.1923C19.9048 36.0487 20.0634 35.9313 20.2572 35.9313H23.7828C23.9766 35.9313 24.1353 36.0487 24.1353 36.1923V37.615Z" fill="#6BC1DD"/>
</svg>
